<?xml version="1.0" encoding="UTF-8" standalone="no"?><!-- Generator: Gravit.io --><svg xmlns="http://www.w3.org/2000/svg" xmlns:xlink="http://www.w3.org/1999/xlink" style="isolation:isolate" viewBox="0 0 1366 768" width="1366pt" height="768pt"><g><line x1="1184.996" y1="326.476" x2="665.624" y2="326.268" vector-effect="non-scaling-stroke" stroke-width="18.461" stroke="rgb(46,198,92)" stroke-linejoin="bevel" stroke-linecap="butt" stroke-miterlimit="3"/><path d=" M 1080.392 187.192 L 984.392 325.037 L 1084.084 460.421" fill="none" vector-effect="non-scaling-stroke" stroke-width="18.461" stroke="rgb(46,198,92)" stroke-linejoin="bevel" stroke-linecap="butt" stroke-miterlimit="3"/><path d=" M 919.162 103.5 L 767.778 326.268 L 919.162 535.497" fill="none" vector-effect="non-scaling-stroke" stroke-width="18.461" stroke="rgb(46,198,92)" stroke-linejoin="bevel" stroke-linecap="butt" stroke-miterlimit="3"/><line x1="225.012" y1="187.192" x2="225.012" y2="448.113" vector-effect="non-scaling-stroke" stroke-width="18.461" stroke="rgb(46,198,92)" stroke-linejoin="bevel" stroke-linecap="butt" stroke-miterlimit="3"/><line x1="399.78" y1="103.5" x2="399.78" y2="540.421" vector-effect="non-scaling-stroke" stroke-width="18.461" stroke="rgb(46,198,92)" stroke-linejoin="bevel" stroke-linecap="butt" stroke-miterlimit="3"/><line x1="558.549" y1="187.192" x2="558.549" y2="469.036" vector-effect="non-scaling-stroke" stroke-width="18.461" stroke="rgb(46,198,92)" stroke-linejoin="bevel" stroke-linecap="butt" stroke-miterlimit="3"/><line x1="225.012" y1="310.958" x2="225.012" y2="343.728" vector-effect="non-scaling-stroke" stroke-width="36.923" stroke="rgb(46,198,92)" stroke-linejoin="bevel" stroke-linecap="butt" stroke-miterlimit="3"/><line x1="399.78" y1="388.496" x2="399.78" y2="421.266" vector-effect="non-scaling-stroke" stroke-width="36.923" stroke="rgb(46,198,92)" stroke-linejoin="bevel" stroke-linecap="butt" stroke-miterlimit="3"/><line x1="559.78" y1="266.651" x2="559.78" y2="299.421" vector-effect="non-scaling-stroke" stroke-width="36.923" stroke="rgb(46,198,92)" stroke-linejoin="bevel" stroke-linecap="butt" stroke-miterlimit="3"/><path d=" M 641.702 355.806 L 555.549 469.036 L 400.473 540.42 L 222.012 448.113 L 102.898 288.926" fill="none" vector-effect="non-scaling-stroke" stroke-width="18.461" stroke="rgb(46,198,92)" stroke-linejoin="bevel" stroke-linecap="butt" stroke-miterlimit="3"/><path d=" M 677.261 287.682 L 744.493 183.368 L 919.323 103.503 L 1080.489 187.319 L 1214.996 360.476" fill="none" vector-effect="non-scaling-stroke" stroke-width="18.461" stroke="rgb(46,198,92)" stroke-linejoin="bevel" stroke-linecap="butt" stroke-miterlimit="3"/><path d=" M 102.551 362 L 225.012 183.5 L 399.78 103.5 L 561.01 187.192 L 663.551 327" fill="none" vector-effect="non-scaling-stroke" stroke-width="18.461" stroke="rgb(46,198,92)" stroke-linejoin="bevel" stroke-linecap="butt" stroke-miterlimit="3"/><path d=" M 1213.56 288.936 L 1084.084 466.575 L 922.854 540.42 L 745.624 460.421 L 657.486 317.985" fill="none" vector-effect="non-scaling-stroke" stroke-width="18.461" stroke="rgb(46,198,92)" stroke-linejoin="bevel" stroke-linecap="butt" stroke-miterlimit="3"/></g><path d=" M 781.877 596.352 L 777.701 603.23 L 777.701 603.23 Q 774.017 599.054 767.876 596.475 L 767.876 596.475 L 767.876 596.475 Q 761.736 593.896 753.876 593.896 L 753.876 593.896 L 753.876 593.896 Q 742.331 593.896 737.05 598.256 L 737.05 598.256 L 737.05 598.256 Q 731.769 602.616 731.769 610.107 L 731.769 610.107 L 731.769 610.107 Q 731.769 614.037 733.182 616.555 L 733.182 616.555 L 733.182 616.555 Q 734.594 619.073 737.542 620.915 L 737.542 620.915 L 737.542 620.915 Q 740.489 622.757 745.095 624.108 L 745.095 624.108 L 745.095 624.108 Q 749.7 625.459 755.963 626.81 L 755.963 626.81 L 755.963 626.81 Q 762.964 628.284 768.552 630.126 L 768.552 630.126 L 768.552 630.126 Q 774.14 631.968 778.07 634.731 L 778.07 634.731 L 778.07 634.731 Q 782 637.495 784.088 641.425 L 784.088 641.425 L 784.088 641.425 Q 786.175 645.355 786.175 651.25 L 786.175 651.25 L 786.175 651.25 Q 786.175 657.267 783.842 661.689 L 783.842 661.689 L 783.842 661.689 Q 781.508 666.11 777.333 669.057 L 777.333 669.057 L 777.333 669.057 Q 773.157 672.005 767.385 673.417 L 767.385 673.417 L 767.385 673.417 Q 761.613 674.83 754.735 674.83 L 754.735 674.83 L 754.735 674.83 Q 734.471 674.83 719.734 662.18 L 719.734 662.18 L 724.032 655.18 L 724.032 655.18 Q 726.366 657.636 729.62 659.846 L 729.62 659.846 L 729.62 659.846 Q 732.875 662.057 736.866 663.715 L 736.866 663.715 L 736.866 663.715 Q 740.858 665.373 745.402 666.294 L 745.402 666.294 L 745.402 666.294 Q 749.946 667.215 754.981 667.215 L 754.981 667.215 L 754.981 667.215 Q 765.42 667.215 771.254 663.469 L 771.254 663.469 L 771.254 663.469 Q 777.087 659.724 777.087 652.109 L 777.087 652.109 L 777.087 652.109 Q 777.087 648.056 775.429 645.293 L 775.429 645.293 L 775.429 645.293 Q 773.771 642.53 770.455 640.503 L 770.455 640.503 L 770.455 640.503 Q 767.139 638.477 762.227 637.003 L 762.227 637.003 L 762.227 637.003 Q 757.314 635.53 750.805 634.056 L 750.805 634.056 L 750.805 634.056 Q 743.928 632.459 738.77 630.74 L 738.77 630.74 L 738.77 630.74 Q 733.612 629.02 730.05 626.441 L 730.05 626.441 L 730.05 626.441 Q 726.488 623.862 724.708 620.239 L 724.708 620.239 L 724.708 620.239 Q 722.927 616.616 722.927 611.335 L 722.927 611.335 L 722.927 611.335 Q 722.927 605.318 725.199 600.589 L 725.199 600.589 L 725.199 600.589 Q 727.471 595.861 731.647 592.729 L 731.647 592.729 L 731.647 592.729 Q 735.822 589.598 741.472 587.94 L 741.472 587.94 L 741.472 587.94 Q 747.121 586.282 753.998 586.282 L 753.998 586.282 L 753.998 586.282 Q 762.718 586.282 769.534 588.922 L 769.534 588.922 L 769.534 588.922 Q 776.35 591.563 781.877 596.352 L 781.877 596.352 L 781.877 596.352 Z  M 796.595 641.916 L 796.595 641.916 L 796.595 641.916 Q 796.595 635.161 798.929 629.143 L 798.929 629.143 L 798.929 629.143 Q 801.262 623.125 805.499 618.643 L 805.499 618.643 L 805.499 618.643 Q 809.736 614.16 815.631 611.581 L 815.631 611.581 L 815.631 611.581 Q 821.526 609.002 828.649 609.002 L 828.649 609.002 L 828.649 609.002 Q 837.738 609.002 844.492 613.116 L 844.492 613.116 L 844.492 613.116 Q 851.247 617.23 854.686 624.231 L 854.686 624.231 L 846.58 626.81 L 846.58 626.81 Q 843.878 621.897 839.027 619.134 L 839.027 619.134 L 839.027 619.134 Q 834.176 616.371 828.281 616.371 L 828.281 616.371 L 828.281 616.371 Q 823.368 616.371 819.131 618.336 L 819.131 618.336 L 819.131 618.336 Q 814.894 620.301 811.763 623.678 L 811.763 623.678 L 811.763 623.678 Q 808.631 627.055 806.85 631.722 L 806.85 631.722 L 806.85 631.722 Q 805.069 636.389 805.069 641.916 L 805.069 641.916 L 805.069 641.916 Q 805.069 647.32 806.912 652.109 L 806.912 652.109 L 806.912 652.109 Q 808.754 656.899 811.947 660.399 L 811.947 660.399 L 811.947 660.399 Q 815.14 663.899 819.377 665.926 L 819.377 665.926 L 819.377 665.926 Q 823.614 667.952 828.404 667.952 L 828.404 667.952 L 828.404 667.952 Q 831.474 667.952 834.483 667.092 L 834.483 667.092 L 834.483 667.092 Q 837.492 666.233 840.071 664.698 L 840.071 664.698 L 840.071 664.698 Q 842.65 663.162 844.492 661.197 L 844.492 661.197 L 844.492 661.197 Q 846.334 659.232 847.071 657.022 L 847.071 657.022 L 855.3 659.478 L 855.3 659.478 Q 853.949 662.917 851.37 665.803 L 851.37 665.803 L 851.37 665.803 Q 848.791 668.689 845.29 670.838 L 845.29 670.838 L 845.29 670.838 Q 841.79 672.987 837.553 674.154 L 837.553 674.154 L 837.553 674.154 Q 833.316 675.321 828.772 675.321 L 828.772 675.321 L 828.772 675.321 Q 821.772 675.321 815.877 672.68 L 815.877 672.68 L 815.877 672.68 Q 809.982 670.04 805.683 665.434 L 805.683 665.434 L 805.683 665.434 Q 801.385 660.829 798.99 654.811 L 798.99 654.811 L 798.99 654.811 Q 796.595 648.793 796.595 641.916 Z  M 878.247 674.093 L 869.895 674.093 L 869.895 610.107 L 878.247 610.107 L 878.247 674.093 L 878.247 674.093 Z  M 878.247 596.721 L 869.895 596.721 L 869.895 584.44 L 878.247 584.44 L 878.247 596.721 L 878.247 596.721 Z  M 925.756 675.321 L 925.756 675.321 L 925.756 675.321 Q 918.756 675.321 912.922 672.68 L 912.922 672.68 L 912.922 672.68 Q 907.088 670.04 902.79 665.434 L 902.79 665.434 L 902.79 665.434 Q 898.492 660.829 896.097 654.811 L 896.097 654.811 L 896.097 654.811 Q 893.702 648.793 893.702 641.916 L 893.702 641.916 L 893.702 641.916 Q 893.702 635.161 896.097 629.205 L 896.097 629.205 L 896.097 629.205 Q 898.492 623.248 902.729 618.766 L 902.729 618.766 L 902.729 618.766 Q 906.966 614.283 912.861 611.643 L 912.861 611.643 L 912.861 611.643 Q 918.756 609.002 925.633 609.002 L 925.633 609.002 L 925.633 609.002 Q 932.633 609.002 938.467 611.643 L 938.467 611.643 L 938.467 611.643 Q 944.301 614.283 948.476 618.827 L 948.476 618.827 L 948.476 618.827 Q 952.652 623.371 954.985 629.266 L 954.985 629.266 L 954.985 629.266 Q 957.319 635.161 957.319 641.793 L 957.319 641.793 L 957.319 641.793 Q 957.319 642.775 957.319 643.758 L 957.319 643.758 L 957.319 643.758 Q 957.319 644.74 957.196 645.109 L 957.196 645.109 L 902.422 645.109 L 902.422 645.109 Q 902.79 650.267 904.816 654.627 L 904.816 654.627 L 904.816 654.627 Q 906.843 658.987 910.036 662.18 L 910.036 662.18 L 910.036 662.18 Q 913.229 665.373 917.343 667.154 L 917.343 667.154 L 917.343 667.154 Q 921.457 668.935 926.124 668.935 L 926.124 668.935 L 926.124 668.935 Q 929.195 668.935 932.265 668.075 L 932.265 668.075 L 932.265 668.075 Q 935.335 667.215 937.914 665.741 L 937.914 665.741 L 937.914 665.741 Q 940.493 664.268 942.581 662.118 L 942.581 662.118 L 942.581 662.118 Q 944.669 659.969 945.774 657.39 L 945.774 657.39 L 953.02 659.355 L 953.02 659.355 Q 951.547 662.917 948.845 665.803 L 948.845 665.803 L 948.845 665.803 Q 946.143 668.689 942.581 670.838 L 942.581 670.838 L 942.581 670.838 Q 939.02 672.987 934.721 674.154 L 934.721 674.154 L 934.721 674.154 Q 930.423 675.321 925.756 675.321 Z  M 902.299 638.723 L 949.336 638.723 L 949.336 638.723 Q 948.967 633.565 946.941 629.328 L 946.941 629.328 L 946.941 629.328 Q 944.915 625.09 941.783 622.02 L 941.783 622.02 L 941.783 622.02 Q 938.651 618.95 934.537 617.23 L 934.537 617.23 L 934.537 617.23 Q 930.423 615.511 925.756 615.511 L 925.756 615.511 L 925.756 615.511 Q 921.089 615.511 916.913 617.23 L 916.913 617.23 L 916.913 617.23 Q 912.738 618.95 909.606 622.02 L 909.606 622.02 L 909.606 622.02 Q 906.474 625.09 904.571 629.389 L 904.571 629.389 L 904.571 629.389 Q 902.667 633.687 902.299 638.723 L 902.299 638.723 L 902.299 638.723 Z  M 1025.461 636.635 L 1025.461 674.093 L 1017.109 674.093 L 1017.109 638.354 L 1017.109 638.354 Q 1017.109 626.933 1013.732 621.775 L 1013.732 621.775 L 1013.732 621.775 Q 1010.355 616.616 1003.354 616.616 L 1003.354 616.616 L 1003.354 616.616 Q 999.67 616.616 995.986 617.967 L 995.986 617.967 L 995.986 617.967 Q 992.301 619.318 989.169 621.775 L 989.169 621.775 L 989.169 621.775 Q 986.038 624.231 983.581 627.608 L 983.581 627.608 L 983.581 627.608 Q 981.125 630.985 980.02 634.915 L 980.02 634.915 L 980.02 674.093 L 971.669 674.093 L 971.669 610.107 L 979.283 610.107 L 979.283 624.599 L 979.283 624.599 Q 983.213 617.599 990.52 613.3 L 990.52 613.3 L 990.52 613.3 Q 997.828 609.002 1006.425 609.002 L 1006.425 609.002 L 1006.425 609.002 Q 1011.706 609.002 1015.39 610.967 L 1015.39 610.967 L 1015.39 610.967 Q 1019.074 612.932 1021.285 616.494 L 1021.285 616.494 L 1021.285 616.494 Q 1023.496 620.055 1024.478 625.213 L 1024.478 625.213 L 1024.478 625.213 Q 1025.461 630.371 1025.461 636.635 L 1025.461 636.635 L 1025.461 636.635 Z  M 1040.302 641.916 L 1040.302 641.916 L 1040.302 641.916 Q 1040.302 635.161 1042.635 629.143 L 1042.635 629.143 L 1042.635 629.143 Q 1044.969 623.125 1049.206 618.643 L 1049.206 618.643 L 1049.206 618.643 Q 1053.443 614.16 1059.338 611.581 L 1059.338 611.581 L 1059.338 611.581 Q 1065.233 609.002 1072.356 609.002 L 1072.356 609.002 L 1072.356 609.002 Q 1081.444 609.002 1088.199 613.116 L 1088.199 613.116 L 1088.199 613.116 Q 1094.953 617.23 1098.392 624.231 L 1098.392 624.231 L 1090.286 626.81 L 1090.286 626.81 Q 1087.585 621.897 1082.733 619.134 L 1082.733 619.134 L 1082.733 619.134 Q 1077.882 616.371 1071.987 616.371 L 1071.987 616.371 L 1071.987 616.371 Q 1067.075 616.371 1062.838 618.336 L 1062.838 618.336 L 1062.838 618.336 Q 1058.601 620.301 1055.469 623.678 L 1055.469 623.678 L 1055.469 623.678 Q 1052.337 627.055 1050.557 631.722 L 1050.557 631.722 L 1050.557 631.722 Q 1048.776 636.389 1048.776 641.916 L 1048.776 641.916 L 1048.776 641.916 Q 1048.776 647.32 1050.618 652.109 L 1050.618 652.109 L 1050.618 652.109 Q 1052.46 656.899 1055.653 660.399 L 1055.653 660.399 L 1055.653 660.399 Q 1058.846 663.899 1063.083 665.926 L 1063.083 665.926 L 1063.083 665.926 Q 1067.321 667.952 1072.11 667.952 L 1072.11 667.952 L 1072.11 667.952 Q 1075.181 667.952 1078.189 667.092 L 1078.189 667.092 L 1078.189 667.092 Q 1081.198 666.233 1083.777 664.698 L 1083.777 664.698 L 1083.777 664.698 Q 1086.356 663.162 1088.199 661.197 L 1088.199 661.197 L 1088.199 661.197 Q 1090.041 659.232 1090.778 657.022 L 1090.778 657.022 L 1099.006 659.478 L 1099.006 659.478 Q 1097.655 662.917 1095.076 665.803 L 1095.076 665.803 L 1095.076 665.803 Q 1092.497 668.689 1088.997 670.838 L 1088.997 670.838 L 1088.997 670.838 Q 1085.497 672.987 1081.26 674.154 L 1081.26 674.154 L 1081.26 674.154 Q 1077.023 675.321 1072.479 675.321 L 1072.479 675.321 L 1072.479 675.321 Q 1065.478 675.321 1059.583 672.68 L 1059.583 672.68 L 1059.583 672.68 Q 1053.688 670.04 1049.39 665.434 L 1049.39 665.434 L 1049.39 665.434 Q 1045.091 660.829 1042.697 654.811 L 1042.697 654.811 L 1042.697 654.811 Q 1040.302 648.793 1040.302 641.916 Z  M 1140.621 675.321 L 1140.621 675.321 L 1140.621 675.321 Q 1133.62 675.321 1127.787 672.68 L 1127.787 672.68 L 1127.787 672.68 Q 1121.953 670.04 1117.655 665.434 L 1117.655 665.434 L 1117.655 665.434 Q 1113.356 660.829 1110.961 654.811 L 1110.961 654.811 L 1110.961 654.811 Q 1108.566 648.793 1108.566 641.916 L 1108.566 641.916 L 1108.566 641.916 Q 1108.566 635.161 1110.961 629.205 L 1110.961 629.205 L 1110.961 629.205 Q 1113.356 623.248 1117.593 618.766 L 1117.593 618.766 L 1117.593 618.766 Q 1121.83 614.283 1127.725 611.643 L 1127.725 611.643 L 1127.725 611.643 Q 1133.62 609.002 1140.498 609.002 L 1140.498 609.002 L 1140.498 609.002 Q 1147.498 609.002 1153.332 611.643 L 1153.332 611.643 L 1153.332 611.643 Q 1159.165 614.283 1163.341 618.827 L 1163.341 618.827 L 1163.341 618.827 Q 1167.516 623.371 1169.85 629.266 L 1169.85 629.266 L 1169.85 629.266 Q 1172.183 635.161 1172.183 641.793 L 1172.183 641.793 L 1172.183 641.793 Q 1172.183 642.775 1172.183 643.758 L 1172.183 643.758 L 1172.183 643.758 Q 1172.183 644.74 1172.061 645.109 L 1172.061 645.109 L 1117.286 645.109 L 1117.286 645.109 Q 1117.655 650.267 1119.681 654.627 L 1119.681 654.627 L 1119.681 654.627 Q 1121.707 658.987 1124.901 662.18 L 1124.901 662.18 L 1124.901 662.18 Q 1128.094 665.373 1132.208 667.154 L 1132.208 667.154 L 1132.208 667.154 Q 1136.322 668.935 1140.989 668.935 L 1140.989 668.935 L 1140.989 668.935 Q 1144.059 668.935 1147.13 668.075 L 1147.13 668.075 L 1147.13 668.075 Q 1150.2 667.215 1152.779 665.741 L 1152.779 665.741 L 1152.779 665.741 Q 1155.358 664.268 1157.446 662.118 L 1157.446 662.118 L 1157.446 662.118 Q 1159.534 659.969 1160.639 657.39 L 1160.639 657.39 L 1167.885 659.355 L 1167.885 659.355 Q 1166.411 662.917 1163.709 665.803 L 1163.709 665.803 L 1163.709 665.803 Q 1161.007 668.689 1157.446 670.838 L 1157.446 670.838 L 1157.446 670.838 Q 1153.884 672.987 1149.586 674.154 L 1149.586 674.154 L 1149.586 674.154 Q 1145.287 675.321 1140.621 675.321 Z  M 1117.163 638.723 L 1164.201 638.723 L 1164.201 638.723 Q 1163.832 633.565 1161.806 629.328 L 1161.806 629.328 L 1161.806 629.328 Q 1159.779 625.09 1156.648 622.02 L 1156.648 622.02 L 1156.648 622.02 Q 1153.516 618.95 1149.402 617.23 L 1149.402 617.23 L 1149.402 617.23 Q 1145.287 615.511 1140.621 615.511 L 1140.621 615.511 L 1140.621 615.511 Q 1135.954 615.511 1131.778 617.23 L 1131.778 617.23 L 1131.778 617.23 Q 1127.602 618.95 1124.471 622.02 L 1124.471 622.02 L 1124.471 622.02 Q 1121.339 625.09 1119.435 629.389 L 1119.435 629.389 L 1119.435 629.389 Q 1117.532 633.687 1117.163 638.723 L 1117.163 638.723 L 1117.163 638.723 Z  M 539.295 674.093 L 480.345 674.093 L 480.345 586.896 L 488.942 586.896 L 488.942 666.478 L 539.295 666.478 L 539.295 674.093 L 539.295 674.093 Z  M 560.031 674.093 L 551.68 674.093 L 551.68 610.107 L 560.031 610.107 L 560.031 674.093 L 560.031 674.093 Z  M 560.031 596.721 L 551.68 596.721 L 551.68 584.44 L 560.031 584.44 L 560.031 596.721 L 560.031 596.721 Z  M 591.329 674.093 L 582.978 674.093 L 582.978 616.739 L 574.135 616.739 L 574.135 610.107 L 582.978 610.107 L 582.978 608.388 L 582.978 608.388 Q 582.978 596.598 588.013 589.905 L 588.013 589.905 L 588.013 589.905 Q 593.049 583.211 601.768 583.211 L 601.768 583.211 L 601.768 583.211 Q 605.575 583.211 609.137 584.317 L 609.137 584.317 L 609.137 584.317 Q 612.699 585.422 615.278 587.264 L 615.278 587.264 L 612.699 593.282 L 612.699 593.282 Q 610.979 591.931 608.462 591.194 L 608.462 591.194 L 608.462 591.194 Q 605.944 590.457 603.365 590.457 L 603.365 590.457 L 603.365 590.457 Q 597.47 590.457 594.399 595.001 L 594.399 595.001 L 594.399 595.001 Q 591.329 599.545 591.329 608.142 L 591.329 608.142 L 591.329 610.107 L 609.014 610.107 L 609.014 616.739 L 591.329 616.739 L 591.329 674.093 L 591.329 674.093 Z  M 646.33 675.321 L 646.33 675.321 L 646.33 675.321 Q 639.33 675.321 633.496 672.68 L 633.496 672.68 L 633.496 672.68 Q 627.663 670.04 623.364 665.434 L 623.364 665.434 L 623.364 665.434 Q 619.066 660.829 616.671 654.811 L 616.671 654.811 L 616.671 654.811 Q 614.276 648.793 614.276 641.916 L 614.276 641.916 L 614.276 641.916 Q 614.276 635.161 616.671 629.205 L 616.671 629.205 L 616.671 629.205 Q 619.066 623.248 623.303 618.766 L 623.303 618.766 L 623.303 618.766 Q 627.54 614.283 633.435 611.643 L 633.435 611.643 L 633.435 611.643 Q 639.33 609.002 646.207 609.002 L 646.207 609.002 L 646.207 609.002 Q 653.208 609.002 659.041 611.643 L 659.041 611.643 L 659.041 611.643 Q 664.875 614.283 669.05 618.827 L 669.05 618.827 L 669.05 618.827 Q 673.226 623.371 675.559 629.266 L 675.559 629.266 L 675.559 629.266 Q 677.893 635.161 677.893 641.793 L 677.893 641.793 L 677.893 641.793 Q 677.893 642.775 677.893 643.758 L 677.893 643.758 L 677.893 643.758 Q 677.893 644.74 677.77 645.109 L 677.77 645.109 L 622.996 645.109 L 622.996 645.109 Q 623.364 650.267 625.391 654.627 L 625.391 654.627 L 625.391 654.627 Q 627.417 658.987 630.61 662.18 L 630.61 662.18 L 630.61 662.18 Q 633.803 665.373 637.917 667.154 L 637.917 667.154 L 637.917 667.154 Q 642.032 668.935 646.699 668.935 L 646.699 668.935 L 646.699 668.935 Q 649.769 668.935 652.839 668.075 L 652.839 668.075 L 652.839 668.075 Q 655.909 667.215 658.489 665.741 L 658.489 665.741 L 658.489 665.741 Q 661.068 664.268 663.155 662.118 L 663.155 662.118 L 663.155 662.118 Q 665.243 659.969 666.349 657.39 L 666.349 657.39 L 673.594 659.355 L 673.594 659.355 Q 672.121 662.917 669.419 665.803 L 669.419 665.803 L 669.419 665.803 Q 666.717 668.689 663.155 670.838 L 663.155 670.838 L 663.155 670.838 Q 659.594 672.987 655.295 674.154 L 655.295 674.154 L 655.295 674.154 Q 650.997 675.321 646.33 675.321 Z  M 622.873 638.723 L 669.91 638.723 L 669.91 638.723 Q 669.542 633.565 667.515 629.328 L 667.515 629.328 L 667.515 629.328 Q 665.489 625.09 662.357 622.02 L 662.357 622.02 L 662.357 622.02 Q 659.225 618.95 655.111 617.23 L 655.111 617.23 L 655.111 617.23 Q 650.997 615.511 646.33 615.511 L 646.33 615.511 L 646.33 615.511 Q 641.663 615.511 637.488 617.23 L 637.488 617.23 L 637.488 617.23 Q 633.312 618.95 630.18 622.02 L 630.18 622.02 L 630.18 622.02 Q 627.049 625.09 625.145 629.389 L 625.145 629.389 L 625.145 629.389 Q 623.241 633.687 622.873 638.723 L 622.873 638.723 L 622.873 638.723 Z  M 165.181 674.707 L 165.181 674.707 L 165.181 674.707 Q 156.092 674.707 148.539 670.961 L 148.539 670.961 L 148.539 670.961 Q 140.987 667.215 135.583 661.013 L 135.583 661.013 L 135.583 661.013 Q 130.179 654.811 127.232 646.828 L 127.232 646.828 L 127.232 646.828 Q 124.284 638.845 124.284 630.494 L 124.284 630.494 L 124.284 630.494 Q 124.284 621.775 127.416 613.792 L 127.416 613.792 L 127.416 613.792 Q 130.547 605.809 136.074 599.668 L 136.074 599.668 L 136.074 599.668 Q 141.601 593.528 149.092 589.905 L 149.092 589.905 L 149.092 589.905 Q 156.584 586.282 165.303 586.282 L 165.303 586.282 L 165.303 586.282 Q 174.392 586.282 181.944 590.15 L 181.944 590.15 L 181.944 590.15 Q 189.497 594.019 194.84 600.282 L 194.84 600.282 L 194.84 600.282 Q 200.182 606.546 203.13 614.467 L 203.13 614.467 L 203.13 614.467 Q 206.077 622.389 206.077 630.617 L 206.077 630.617 L 206.077 630.617 Q 206.077 639.337 202.945 647.32 L 202.945 647.32 L 202.945 647.32 Q 199.814 655.302 194.349 661.382 L 194.349 661.382 L 194.349 661.382 Q 188.883 667.461 181.392 671.084 L 181.392 671.084 L 181.392 671.084 Q 173.9 674.707 165.181 674.707 Z  M 132.881 630.494 L 132.881 630.494 L 132.881 630.494 Q 132.881 637.617 135.214 644.188 L 135.214 644.188 L 135.214 644.188 Q 137.548 650.758 141.846 655.855 L 141.846 655.855 L 141.846 655.855 Q 146.145 660.952 152.04 663.961 L 152.04 663.961 L 152.04 663.961 Q 157.935 666.97 165.181 666.97 L 165.181 666.97 L 165.181 666.97 Q 172.549 666.97 178.567 663.776 L 178.567 663.776 L 178.567 663.776 Q 184.585 660.583 188.761 655.425 L 188.761 655.425 L 188.761 655.425 Q 192.936 650.267 195.208 643.758 L 195.208 643.758 L 195.208 643.758 Q 197.48 637.249 197.48 630.494 L 197.48 630.494 L 197.48 630.494 Q 197.48 623.371 195.085 616.801 L 195.085 616.801 L 195.085 616.801 Q 192.691 610.23 188.392 605.195 L 188.392 605.195 L 188.392 605.195 Q 184.094 600.16 178.199 597.151 L 178.199 597.151 L 178.199 597.151 Q 172.304 594.142 165.181 594.142 L 165.181 594.142 L 165.181 594.142 Q 157.812 594.142 151.794 597.273 L 151.794 597.273 L 151.794 597.273 Q 145.776 600.405 141.601 605.563 L 141.601 605.563 L 141.601 605.563 Q 137.425 610.721 135.153 617.23 L 135.153 617.23 L 135.153 617.23 Q 132.881 623.74 132.881 630.494 Z  M 254.692 675.321 L 254.692 675.321 L 254.692 675.321 Q 246.586 675.321 240.384 671.207 L 240.384 671.207 L 240.384 671.207 Q 234.182 667.092 230.375 660.829 L 230.375 660.829 L 230.375 700.252 L 222.024 700.252 L 222.024 610.107 L 229.515 610.107 L 229.515 622.511 L 229.515 622.511 Q 233.445 616.494 239.709 612.748 L 239.709 612.748 L 239.709 612.748 Q 245.972 609.002 253.341 609.002 L 253.341 609.002 L 253.341 609.002 Q 259.973 609.002 265.499 611.765 L 265.499 611.765 L 265.499 611.765 Q 271.026 614.529 275.079 619.134 L 275.079 619.134 L 275.079 619.134 Q 279.131 623.74 281.404 629.757 L 281.404 629.757 L 281.404 629.757 Q 283.676 635.775 283.676 642.161 L 283.676 642.161 L 283.676 642.161 Q 283.676 648.916 281.588 654.934 L 281.588 654.934 L 281.588 654.934 Q 279.5 660.952 275.631 665.496 L 275.631 665.496 L 275.631 665.496 Q 271.763 670.04 266.42 672.68 L 266.42 672.68 L 266.42 672.68 Q 261.078 675.321 254.692 675.321 Z  M 252.358 667.952 L 252.358 667.952 L 252.358 667.952 Q 257.516 667.952 261.754 665.741 L 261.754 665.741 L 261.754 665.741 Q 265.991 663.531 268.999 659.908 L 268.999 659.908 L 268.999 659.908 Q 272.008 656.285 273.605 651.679 L 273.605 651.679 L 273.605 651.679 Q 275.201 647.074 275.201 642.161 L 275.201 642.161 L 275.201 642.161 Q 275.201 637.003 273.359 632.336 L 273.359 632.336 L 273.359 632.336 Q 271.517 627.67 268.324 624.108 L 268.324 624.108 L 268.324 624.108 Q 265.131 620.546 260.771 618.459 L 260.771 618.459 L 260.771 618.459 Q 256.411 616.371 251.376 616.371 L 251.376 616.371 L 251.376 616.371 Q 248.183 616.371 244.683 617.66 L 244.683 617.66 L 244.683 617.66 Q 241.182 618.95 238.174 621.099 L 238.174 621.099 L 238.174 621.099 Q 235.165 623.248 233.015 626.134 L 233.015 626.134 L 233.015 626.134 Q 230.866 629.02 230.375 632.214 L 230.375 632.214 L 230.375 651.864 L 230.375 651.864 Q 231.849 655.302 234.121 658.25 L 234.121 658.25 L 234.121 658.25 Q 236.393 661.197 239.279 663.347 L 239.279 663.347 L 239.279 663.347 Q 242.165 665.496 245.481 666.724 L 245.481 666.724 L 245.481 666.724 Q 248.797 667.952 252.358 667.952 Z  M 326.886 675.321 L 326.886 675.321 L 326.886 675.321 Q 319.886 675.321 314.053 672.68 L 314.053 672.68 L 314.053 672.68 Q 308.219 670.04 303.921 665.434 L 303.921 665.434 L 303.921 665.434 Q 299.622 660.829 297.227 654.811 L 297.227 654.811 L 297.227 654.811 Q 294.832 648.793 294.832 641.916 L 294.832 641.916 L 294.832 641.916 Q 294.832 635.161 297.227 629.205 L 297.227 629.205 L 297.227 629.205 Q 299.622 623.248 303.859 618.766 L 303.859 618.766 L 303.859 618.766 Q 308.096 614.283 313.991 611.643 L 313.991 611.643 L 313.991 611.643 Q 319.886 609.002 326.764 609.002 L 326.764 609.002 L 326.764 609.002 Q 333.764 609.002 339.598 611.643 L 339.598 611.643 L 339.598 611.643 Q 345.431 614.283 349.607 618.827 L 349.607 618.827 L 349.607 618.827 Q 353.782 623.371 356.116 629.266 L 356.116 629.266 L 356.116 629.266 Q 358.449 635.161 358.449 641.793 L 358.449 641.793 L 358.449 641.793 Q 358.449 642.775 358.449 643.758 L 358.449 643.758 L 358.449 643.758 Q 358.449 644.74 358.326 645.109 L 358.326 645.109 L 303.552 645.109 L 303.552 645.109 Q 303.921 650.267 305.947 654.627 L 305.947 654.627 L 305.947 654.627 Q 307.973 658.987 311.166 662.18 L 311.166 662.18 L 311.166 662.18 Q 314.36 665.373 318.474 667.154 L 318.474 667.154 L 318.474 667.154 Q 322.588 668.935 327.255 668.935 L 327.255 668.935 L 327.255 668.935 Q 330.325 668.935 333.396 668.075 L 333.396 668.075 L 333.396 668.075 Q 336.466 667.215 339.045 665.741 L 339.045 665.741 L 339.045 665.741 Q 341.624 664.268 343.712 662.118 L 343.712 662.118 L 343.712 662.118 Q 345.8 659.969 346.905 657.39 L 346.905 657.39 L 354.151 659.355 L 354.151 659.355 Q 352.677 662.917 349.975 665.803 L 349.975 665.803 L 349.975 665.803 Q 347.273 668.689 343.712 670.838 L 343.712 670.838 L 343.712 670.838 Q 340.15 672.987 335.852 674.154 L 335.852 674.154 L 335.852 674.154 Q 331.553 675.321 326.886 675.321 Z  M 303.429 638.723 L 350.466 638.723 L 350.466 638.723 Q 350.098 633.565 348.072 629.328 L 348.072 629.328 L 348.072 629.328 Q 346.045 625.09 342.914 622.02 L 342.914 622.02 L 342.914 622.02 Q 339.782 618.95 335.668 617.23 L 335.668 617.23 L 335.668 617.23 Q 331.553 615.511 326.886 615.511 L 326.886 615.511 L 326.886 615.511 Q 322.22 615.511 318.044 617.23 L 318.044 617.23 L 318.044 617.23 Q 313.868 618.95 310.737 622.02 L 310.737 622.02 L 310.737 622.02 Q 307.605 625.09 305.701 629.389 L 305.701 629.389 L 305.701 629.389 Q 303.798 633.687 303.429 638.723 L 303.429 638.723 L 303.429 638.723 Z  M 426.591 636.635 L 426.591 674.093 L 418.24 674.093 L 418.24 638.354 L 418.24 638.354 Q 418.24 626.933 414.863 621.775 L 414.863 621.775 L 414.863 621.775 Q 411.485 616.616 404.485 616.616 L 404.485 616.616 L 404.485 616.616 Q 400.801 616.616 397.116 617.967 L 397.116 617.967 L 397.116 617.967 Q 393.432 619.318 390.3 621.775 L 390.3 621.775 L 390.3 621.775 Q 387.168 624.231 384.712 627.608 L 384.712 627.608 L 384.712 627.608 Q 382.256 630.985 381.151 634.915 L 381.151 634.915 L 381.151 674.093 L 372.799 674.093 L 372.799 610.107 L 380.414 610.107 L 380.414 624.599 L 380.414 624.599 Q 384.344 617.599 391.651 613.3 L 391.651 613.3 L 391.651 613.3 Q 398.958 609.002 407.555 609.002 L 407.555 609.002 L 407.555 609.002 Q 412.836 609.002 416.521 610.967 L 416.521 610.967 L 416.521 610.967 Q 420.205 612.932 422.416 616.494 L 422.416 616.494 L 422.416 616.494 Q 424.626 620.055 425.609 625.213 L 425.609 625.213 L 425.609 625.213 Q 426.591 630.371 426.591 636.635 L 426.591 636.635 L 426.591 636.635 Z " fill="rgb(19,157,61)"/></svg>