<?xml version="1.0" encoding="utf-8"?>
<!-- Generator: Adobe Illustrator 22.1.0, SVG Export Plug-In . SVG Version: 6.00 Build 0)  -->
<svg version="1.1" xmlns="http://www.w3.org/2000/svg" xmlns:xlink="http://www.w3.org/1999/xlink" x="0px" y="0px"
	 viewBox="0 0 1366 768" style="enable-background:new 0 0 1366 768;" xml:space="preserve">
<style type="text/css">
	.st0{fill:none;stroke:#29AA4B;stroke-width:18.4614;stroke-miterlimit:10;}
	.st1{fill:none;stroke:#2EC65C;stroke-width:18.4614;stroke-miterlimit:10;}
	.st2{fill:none;stroke:#2EC65C;stroke-width:36.9229;stroke-miterlimit:10;}
	.st3{fill:#2EC65C;}
</style>
<g id="Camada_5">
	<path class="st0" d="M139.8,317.7"/>
	<line class="st1" x1="1188.4" y1="326.5" x2="669.1" y2="326.3"/>
	<polyline class="st1" points="1083.8,187.2 987.8,325 1087.5,460.4 	"/>
	<path class="st0" d="M926.3,103.5"/>
	<path class="st0" d="M922.6,103.5"/>
	<polyline class="st1" points="922.6,103.5 771.2,326.3 922.6,535.5 	"/>
	<path class="st0" d="M228.5,187.2"/>
	<line class="st1" x1="228.5" y1="187.2" x2="228.5" y2="448.1"/>
	<line class="st1" x1="403.2" y1="103.5" x2="403.2" y2="540.4"/>
	<line class="st1" x1="562" y1="187.2" x2="562" y2="469"/>
</g>
<g id="Camada_6">
	<line class="st2" x1="228.5" y1="311" x2="228.5" y2="343.7"/>
	<line class="st2" x1="403.2" y1="388.5" x2="403.2" y2="421.3"/>
	<line class="st2" x1="563.2" y1="266.7" x2="563.2" y2="299.4"/>
</g>
<g id="Camada_1">
	<polyline class="st1" points="648.2,355.8 562,469 406.9,540.4 228.5,448.1 140.3,317.9 	"/>
	<path class="st0" d="M139.8,317.7"/>
</g>
<g id="Camada_4">
	<polyline class="st1" points="680.7,287.7 747.9,183.4 922.8,103.5 1083.9,187.3 1188.4,326.5 	"/>
</g>
<g id="Camada_3">
	<polyline class="st1" points="139,327 228.5,183.5 403.2,103.5 564.5,187.2 667,327 	"/>
	<path class="st1" d="M928.8,583.5"/>
</g>
<g id="Camada_2">
	<polyline class="st1" points="1192,317.9 1087.5,466.6 926.3,540.4 749.1,460.4 660.9,318 	"/>
	<g>
		<g>
			<path class="st3" d="M341.1,648.8c0,33-11.3,45.8-25.6,45.8c-14.7,0-24.5-15.6-24.5-45.3c0-29.3,10.5-45.1,25.9-45.1
				C332.1,604.2,341.1,620.6,341.1,648.8z M301.5,649.4c0,18.2,3.5,36.3,14.8,36.3c11.4,0,14.3-19.3,14.3-36.6
				c0-16.5-3-36.1-14.5-36.1C305.1,613.1,301.5,631.5,301.5,649.4z"/>
			<path class="st3" d="M353.2,606.6c4-1,8.8-1.7,14.6-1.7c8.1,0,15,2,19.5,6.5c4.3,4.2,6.5,10.6,6.5,18.3c0,8.1-2,13.5-5.4,18
				c-4.8,6.6-13,9.9-20.8,9.9c-1.7,0-3.1,0-4.5-0.2v36.2h-10V606.6z M363.2,648.9c1.2,0.2,2.3,0.3,4,0.3c9.9,0,16.5-6.5,16.5-18.9
				c0-9.1-3.7-17.2-14.9-17.2c-2.3,0-4.2,0.3-5.6,0.7V648.9z"/>
			<path class="st3" d="M437.6,651.6h-22.1v33.2h25.2v8.8h-35.2v-88.3h33.6v8.8h-23.6v29.1h22.1V651.6z"/>
			<path class="st3" d="M451.8,693.6v-88.3h9.5l16.2,41.4c3.7,9.5,8.3,21.2,11.3,30.7h0.3c-0.8-13.9-1.2-25.3-1.2-40.5v-31.6h9.1
				v88.3h-9.5l-16.8-42.5c-3.6-8.9-7.4-18.9-10.5-30h-0.3c0.8,11.8,1,23,1,41.9v30.6H451.8z"/>
			<path class="st3" d="M533.3,605.3h10V685h24.8v8.6h-34.9V605.3z"/>
			<path class="st3" d="M588.4,605.3v88.3h-10v-88.3H588.4z"/>
			<path class="st3" d="M604.4,605.3H638v8.8h-23.6V645h22v8.5h-22v40.1h-10V605.3z"/>
			<path class="st3" d="M681.7,651.6h-22.1v33.2h25.2v8.8h-35.2v-88.3h33.6v8.8h-23.6v29.1h22.1V651.6z"/>
			<path class="st3" d="M714.4,681.9c3,1.9,8.3,3.6,12.7,3.6c9.2,0,14.8-6.1,14.8-15c0-8.2-4.8-13.1-11.7-18.3
				c-7-4.9-16.6-13.1-16.6-24.5c0-13.4,9.3-23.2,23.4-23.2c5.5,0,10.2,1.8,12.3,3.2l-2.4,8.6c-2.3-1.6-6-3-10.5-3
				c-8.6,0-12.7,6.6-12.7,12.6c0,8.7,4.6,12.2,13,18.1c10.6,7.5,15.3,15.7,15.3,25.4c0,15.3-10.7,24.8-24.7,24.8
				c-6,0-12.4-2-14.9-3.9L714.4,681.9z"/>
			<path class="st3" d="M802.2,692c-2.7,1.4-7.2,2.3-12.7,2.3c-17.2,0-29.6-13.9-29.6-43.9c0-34.8,17.3-46,31.2-46
				c5.3,0,9.2,1,11,2.2l-2.2,8.6c-2.1-1-4.3-1.9-8.9-1.9c-9.4,0-20.5,9.2-20.5,36.1c0,27.1,10,35.9,20.8,35.9c3.8,0,7.1-0.9,9.2-1.9
				L802.2,692z"/>
			<path class="st3" d="M822.6,605.3v88.3h-10v-88.3H822.6z"/>
			<path class="st3" d="M870.8,651.6h-22.1v33.2h25.2v8.8h-35.2v-88.3h33.6v8.8h-23.6v29.1h22.1V651.6z"/>
			<path class="st3" d="M885,693.6v-88.3h9.5l16.2,41.4c3.7,9.5,8.3,21.2,11.3,30.7h0.3c-0.8-13.9-1.2-25.3-1.2-40.5v-31.6h9.1v88.3
				h-9.5l-16.8-42.5c-3.6-8.9-7.4-18.9-10.5-30h-0.3c0.8,11.8,1,23,1,41.9v30.6H885z"/>
			<path class="st3" d="M984.5,692c-2.7,1.4-7.2,2.3-12.7,2.3c-17.2,0-29.6-13.9-29.6-43.9c0-34.8,17.3-46,31.2-46
				c5.3,0,9.2,1,11,2.2l-2.2,8.6c-2.1-1-4.3-1.9-8.9-1.9c-9.4,0-20.5,9.2-20.5,36.1c0,27.1,10,35.9,20.8,35.9c3.8,0,7.1-0.9,9.2-1.9
				L984.5,692z"/>
			<path class="st3" d="M1027,651.6h-22.1v33.2h25.2v8.8h-35.2v-88.3h33.6v8.8h-23.6v29.1h22.1V651.6z"/>
		</g>
	</g>
</g>
</svg>
