<svg xmlns="http://www.w3.org/2000/svg" xmlns:xlink="http://www.w3.org/1999/xlink" version="1.1" x="0px" y="0px" viewBox="0 0 491.5 614.375" style="enable-background:new 0 0 491.5 491.5;" xml:space="preserve"><style type="text/css">
	.st0{fill-rule:evenodd;clip-rule:evenodd;}
</style><g><path class="st0" d="M38.3,325.2h415V72.6h-415L38.3,325.2L38.3,325.2z M458,334.7H33.5c-2.6,0-4.7-2.1-4.7-4.7l0-262.1   c0-2.6,2.1-4.7,4.7-4.7l424.4,0c2.6,0,4.7,2.1,4.7,4.7v262.1C462.7,332.5,460.6,334.7,458,334.7L458,334.7z"/><path class="st0" d="M72.5,291h346.6V106.8H72.5C72.5,106.8,72.5,291,72.5,291z M423.8,300.5H67.7c-2.6,0-4.7-2.1-4.7-4.7L63,102   c0-2.6,2.1-4.7,4.7-4.7h356.1c2.6,0,4.7,2.1,4.7,4.7l0,193.7C428.5,298.3,426.4,300.5,423.8,300.5L423.8,300.5z"/><path class="st0" d="M160.9,418.9h169.6v-16.3c0-9-7.3-16.3-16.3-16.3l-137.1,0c-9,0-16.3,7.3-16.3,16.3L160.9,418.9L160.9,418.9z    M335.3,428.4H156.2c-2.6,0-4.7-2.1-4.7-4.7l0-21c0-14.2,11.6-25.7,25.7-25.7h137.1c14.2,0,25.7,11.5,25.7,25.7l0,21   C340,426.3,337.9,428.4,335.3,428.4L335.3,428.4z"/><path class="st0" d="M183.8,386.4c-1.1,0-2.2-0.4-3.1-1.2c-2-1.7-2.2-4.7-0.5-6.7c12.4-14.3,20.9-31,25.2-49.7   c0.6-2.5,3.1-4.1,5.7-3.6c2.5,0.6,4.1,3.1,3.5,5.7c-4.7,20.2-13.9,38.3-27.3,53.8C186.5,385.8,185.1,386.4,183.8,386.4L183.8,386.4   z"/><path class="st0" d="M307.7,386.4c-1.3,0-2.6-0.6-3.6-1.6c-13.5-15.5-22.6-33.6-27.3-53.8c-0.6-2.5,1-5.1,3.6-5.7   c2.5-0.6,5.1,1,5.7,3.6c4.3,18.7,12.8,35.4,25.2,49.7c1.7,2,1.5,5-0.5,6.7C309.9,386,308.8,386.4,307.7,386.4z"/><path class="st0" d="M334.8,123.9c-4.4,0-8,3.6-8,8c0,4.4,3.6,8.1,8,8.1c4.4,0,8.1-3.6,8.1-8.1   C342.8,127.5,339.2,123.9,334.8,123.9z M334.8,149.5c-9.7,0-17.5-7.9-17.5-17.5c0-9.7,7.9-17.5,17.5-17.5c9.7,0,17.5,7.9,17.5,17.5   C352.3,141.6,344.4,149.5,334.8,149.5z"/><path class="st0" d="M310.3,177h48.9v-9.1c0-5-4.1-9.1-9.1-9.1l-2.1,0c-3.6,3.3-8.3,5.2-13.2,5.2c-5,0-9.7-1.9-13.2-5.2l-2.2,0   c-5,0-9.1,4.1-9.1,9.1L310.3,177L310.3,177z M364,186.5h-58.4c-2.6,0-4.7-2.1-4.7-4.7l0-13.8c0-10.2,8.3-18.5,18.5-18.5l4.2,0   c1.4,0,2.7,0.6,3.6,1.7c1.9,2.2,4.6,3.5,7.6,3.5c2.9,0,5.7-1.3,7.6-3.5c0.9-1.1,2.2-1.7,3.6-1.7l4.2,0c10.2,0,18.5,8.3,18.5,18.5   v13.8C368.7,184.3,366.6,186.5,364,186.5L364,186.5z"/><path class="st0" d="M334.8,220.8c-4.4,0-8,3.6-8,8.1c0,4.4,3.6,8,8,8c4.4,0,8.1-3.6,8.1-8C342.8,224.4,339.2,220.8,334.8,220.8z    M334.8,246.3c-9.7,0-17.5-7.9-17.5-17.5c0-9.7,7.9-17.5,17.5-17.5c9.7,0,17.5,7.9,17.5,17.5C352.3,238.5,344.4,246.3,334.8,246.3z   "/><path class="st0" d="M310.3,273.8h48.9v-9.1c0-5-4.1-9.1-9.1-9.1l-2.1,0c-3.6,3.4-8.3,5.2-13.2,5.2c-5,0-9.7-1.9-13.2-5.2l-2.2,0   c-5,0-9.1,4.1-9.1,9.1L310.3,273.8L310.3,273.8z M364,283.3h-58.4c-2.6,0-4.7-2.1-4.7-4.7l0-13.8c0-10.2,8.3-18.6,18.5-18.6l4.2,0   c1.4,0,2.7,0.6,3.6,1.7c1.9,2.2,4.6,3.5,7.6,3.5c2.9,0,5.7-1.3,7.6-3.5c0.9-1.1,2.2-1.7,3.6-1.7l4.2,0c10.2,0,18.5,8.3,18.5,18.6   v13.8C368.7,281.2,366.6,283.3,364,283.3L364,283.3z"/><path class="st0" d="M245.8,300.5c-2.6,0-4.7-2.1-4.7-4.7l0-193.7c0-2.6,2.1-4.7,4.7-4.7c2.6,0,4.7,2.1,4.7,4.7l0,193.7   C250.5,298.3,248.4,300.5,245.8,300.5z"/><path class="st0" d="M423.8,203.6h-178c-2.6,0-4.7-2.1-4.7-4.7c0-2.6,2.1-4.7,4.7-4.7l178,0c2.6,0,4.7,2.1,4.7,4.7   C428.5,201.5,426.4,203.6,423.8,203.6z"/><path class="st0" d="M156.7,132.6c-5.3,0-9.6,4.3-9.6,9.6c0,5.3,4.3,9.6,9.6,9.6c5.3,0,9.6-4.3,9.6-9.6   C166.3,136.9,162,132.6,156.7,132.6L156.7,132.6z M156.7,161.2c-10.5,0-19.1-8.6-19.1-19.1c0-10.5,8.6-19.1,19.1-19.1   c10.5,0,19.1,8.6,19.1,19.1C175.8,152.7,167.3,161.2,156.7,161.2z"/><path class="st0" d="M128.8,193.2h56v-10.8c0-5.9-4.8-10.7-10.8-10.7l-2.6,0c-3.9,3.8-9.1,5.9-14.6,5.9c-5.5,0-10.7-2.1-14.6-5.9   l-2.6,0c-5.9,0-10.7,4.8-10.7,10.7L128.8,193.2L128.8,193.2z M189.5,202.7H124c-2.6,0-4.7-2.1-4.7-4.7l0-15.5   c0-11.2,9.1-20.2,20.2-20.2l4.7,0c1.4,0,2.7,0.6,3.6,1.7c2.2,2.7,5.5,4.2,8.9,4.2c3.5,0,6.7-1.5,8.9-4.2c0.9-1.1,2.2-1.7,3.6-1.7   l4.7,0c11.2,0,20.2,9.1,20.2,20.2l0,15.5C194.2,200.6,192.1,202.7,189.5,202.7z"/><path class="st0" d="M129.3,226.8h-45c-2.6,0-4.7-2.1-4.7-4.7c0-2.6,2.1-4.7,4.7-4.7h45c2.6,0,4.7,2.1,4.7,4.7   C134,224.7,131.9,226.8,129.3,226.8z"/><path class="st0" d="M116.7,250.5H84.3c-2.6,0-4.7-2.1-4.7-4.7c0-2.6,2.1-4.7,4.7-4.7l32.4,0c2.6,0,4.7,2.1,4.7,4.7   C121.5,248.4,119.3,250.5,116.7,250.5L116.7,250.5z"/><path class="st0" d="M129.3,274.2h-45c-2.6,0-4.7-2.1-4.7-4.7c0-2.6,2.1-4.7,4.7-4.7l45,0c2.6,0,4.7,2.1,4.7,4.7   C134,272.1,131.9,274.2,129.3,274.2z"/><path class="st0" d="M151.5,264.7h7.1v-22.1h-7.1V264.7z M163.3,274.2h-16.6c-2.6,0-4.7-2.1-4.7-4.7l0-31.6c0-2.6,2.1-4.7,4.7-4.7   l16.6,0c2.6,0,4.7,2.1,4.7,4.7l0,31.6C168.1,272.1,166,274.2,163.3,274.2L163.3,274.2z"/><path class="st0" d="M184.4,264.7h7.1v-33.5h-7.1V264.7z M196.3,274.2h-16.6c-2.6,0-4.7-2.1-4.7-4.7l0-42.9c0-2.6,2.1-4.7,4.7-4.7   h16.6c2.6,0,4.7,2.1,4.7,4.7l0,42.9C201,272.1,198.9,274.2,196.3,274.2z"/><path class="st0" d="M217.4,264.7h7.1v-44.8h-7.1V264.7z M229.2,274.2h-16.6c-2.6,0-4.7-2.1-4.7-4.7l0-54.3c0-2.6,2.1-4.7,4.7-4.7   l16.6,0c2.6,0,4.7,2.1,4.7,4.7l0,54.3C233.9,272.1,231.8,274.2,229.2,274.2z"/></g></svg>