<svg xmlns="http://www.w3.org/2000/svg" xmlns:xlink="http://www.w3.org/1999/xlink" version="1.1" x="0px" y="0px" viewBox="0 0 100 125" style="enable-background:new 0 0 100 100;" xml:space="preserve"><g><path fill="#48b87d" d="M84.57,75.48l-6.59-3.04V20.21c-0.03-0.19-0.07-0.4-0.21-0.54l-4.8-5.18v-8.7c0-0.44-0.35-0.79-0.78-0.79H15.78   C15.35,5,15,5.35,15,5.79v75.68c0,0.44,0.35,0.79,0.78,0.79H20v4.06c0,0.44,0.35,0.79,0.78,0.79h44.09l9.26,7.72   c0.36,0.31,0.96,0.19,1.18-0.23l9.63-18.02C85.04,76.38,85.08,75.64,84.57,75.48z M69.1,12.62l6.3,6.8h-6.3V12.62z M16.56,80.68   V6.58h54.86v6.23l-2.53-2.73c-0.15-0.16-0.36-0.22-0.57-0.25H20.77c-0.43,0-0.78,0.35-0.78,0.79v70.06H16.56z M21.55,11.41h45.99   v8.8c0,0.44,0.35,0.79,0.78,0.79h8.11v50.72l-4.28-1.97c-0.37-0.17-0.81-0.02-1,0.34l-0.73,1.35c-0.6-0.51-1.19-1.02-1.74-1.52   c-4.22-5.26-5.79-12.49-10.24-18.08c0.91-0.95,1.2-2.4,0.6-3.59c-0.71-1.41-2.44-2.05-4.03-1.47c-1.22,0.45-2.54,0.99-3.91,1.57   l-6-2.15c-1.74-0.62-3.67-0.21-5.02,1.07l-7.89,7.54c-0.51,0.49-0.8,1.18-0.8,1.9c0,0.3,0.06,0.58,0.15,0.85   c-0.42,0.52-0.61,1.19-0.67,1.86c-1.77,1.33-3.24,2.77-4.47,4.39c-0.44,0.56,0.07,1.33,0.74,1.27c1.43,0,2.88-0.17,4.33-0.48   l-0.59,1.86c-0.64,1.6,0.02,2.79,0.96,3.26c1.71,0.69,3.29-0.09,4.53-2.13l0.78-1.36l4.63,3.07c4.74,5.79,9.73,9.65,15.35,11.83   c2.26,0.65,4.42,1.59,6.57,2.83l-0.5,0.93c-0.11,0.21-0.11,0.44-0.03,0.65h-41.6V11.41z M64.43,82.56   c-2.25-1.3-4.51-2.28-6.82-2.94c-5.46-2.08-10.18-5.92-14.89-11.59l-9.25-6.14c-1.07-0.53-1.41-2.19-0.78-3.26   c0.86-1.19,2.49-1.15,3.48-0.58c1.14,0.52,4.34,2.56,4.78,2.83c0,0,0,0,0,0c1.96,1.21,4,2.26,6.29,2.42   c2.29-0.11,4.79,0.37,7.17,1.58c0.92,0.42,1.55-1.05,0.62-1.45c-1.84-0.82-3.78-1.56-5.59-1.68c1.08-1.26,1.74-2.5,2-3.78   c0.12-0.59,0.03-1.18-0.21-1.73c1.47-0.8,5.39-3.1,5.93-3.44c4.49,5.64,5.97,12.87,10.4,18.25c0.69,0.63,1.39,1.23,2.1,1.83   L64.43,82.56z M31.07,61.26c0.2,0.59,0.54,1.1,0.98,1.5l-0.01,0.05c-1.1,0.29-2.2,0.51-3.29,0.61   C29.44,62.66,30.23,61.95,31.07,61.26z M56.94,51.05c-0.49,0.32-1.01,0.64-1.54,0.96l-1.55-3.1c0.57-0.23,1.14-0.45,1.68-0.65   c0.85-0.31,1.76,0,2.11,0.7C58.02,49.73,57.66,50.59,56.94,51.05z M52.41,49.51l1.65,3.31c-3.77,2.22-8.33,4.57-12.63,6.49   c-1.29-0.81-2.61-1.68-3.94-2.36C42.12,54.25,47.48,51.56,52.41,49.51z M49.92,57.63c-0.26,1.31-1.12,2.63-2.62,4.07   c-1.47-0.12-2.86-0.68-4.21-1.41c2.25-1.03,4.55-2.17,6.76-3.33C49.93,57.18,49.97,57.4,49.92,57.63z M43.56,51.87l-0.2-1.41   c-0.13-1.02-1.7-0.78-1.54,0.23l0.28,1.93c-0.84,0.44-1.67,0.88-2.48,1.33l-0.58-0.7c-0.64-0.79-1.85,0.25-1.19,1.02l0.38,0.45   c-0.87,0.49-1.72,0.99-2.53,1.48c-0.81-0.19-1.8-0.15-2.68,0.23c0.05-0.18,0.13-0.35,0.26-0.48l7.89-7.53   c0.93-0.88,2.25-1.16,3.44-0.73L49,49.27C47.21,50.07,45.38,50.95,43.56,51.87z M32.35,66.98l0.91-2.86   c0.17-0.05,0.35-0.1,0.52-0.16l2.07,1.37l-0.82,1.43c-0.84,1.48-1.97,1.76-2.5,1.5C32,68.01,32.21,67.32,32.35,66.98z M74.39,93   l-9.52-7.94l7.3-13.56l11.01,5.07L74.39,93z"/><path fill="#48b87d" d="M27.42,27.85h43.14c1.01,0.02,1.01-1.59,0-1.58H27.42C26.41,26.26,26.41,27.87,27.42,27.85z"/><path fill="#48b87d" d="M27.42,33.12h43.14c1.01,0.02,1.01-1.59,0-1.58H27.42C26.41,31.52,26.41,33.13,27.42,33.12z"/><path fill="#48b87d" d="M27.42,38.38h43.14c1.01,0.02,1.01-1.59,0-1.58H27.42C26.41,36.79,26.41,38.4,27.42,38.38z"/><path fill="#48b87d" d="M27.42,43.65h43.14c1.01,0.02,1.01-1.59,0-1.58H27.42C26.41,42.05,26.41,43.66,27.42,43.65z"/></g></svg>