<svg xmlns="http://www.w3.org/2000/svg" data-name="Layer 1" viewBox="0 0 128 160" x="0px" y="0px"><path fill="#48b87d" d="M19.5,75.25H30.06a35.68,35.68,0,0,1-1.16-4H19.5a2,2,0,0,0,0,4Z"/><path fill="#48b87d" d="M108.5,75.25a2,2,0,0,0,0-4H99.09a35.68,35.68,0,0,1-1.16,4Z"/><path fill="#48b87d" d="M117.5,65.25a2,2,0,0,0,0-4H99.94c0,.66.06,1.33.06,2s0,1.34-.06,2Z"/><path fill="#48b87d" d="M10.5,61.25a2,2,0,0,0,0,4H28.06c0-.66-.06-1.33-.06-2s0-1.34.06-2Z"/><path fill="#48b87d" d="M99.09,55.25h9.41a2,2,0,0,0,0-4H97.94A35.68,35.68,0,0,1,99.09,55.25Z"/><path fill="#48b87d" d="M19.5,51.25a2,2,0,0,0,0,4h9.41a35.68,35.68,0,0,1,1.16-4Z"/><path fill="#48b87d" d="M68.27,31.54A32,32,0,0,0,56.33,94.31h0a34.33,34.33,0,0,0,15.28,0h0a32,32,0,0,0,14-54.58,5.9,5.9,0,0,1-2.47,3.17,28,28,0,0,1-10,46.77v-6.9a2,2,0,0,0-2-2H71A14.15,14.15,0,0,1,75.24,71,16.29,16.29,0,0,0,52.76,47.4,16.3,16.3,0,0,0,52.8,71,14,14,0,0,1,57,80.78c-1.15.09-1.33.27-1.63.56a2,2,0,0,0-.59,1.42v6.9A28,28,0,0,1,67.38,35.46a5.76,5.76,0,0,1,.89-3.92Zm1,59.21a27.77,27.77,0,0,1-10.5,0v-6l.25,0H69l.22,0h0ZM55.55,68.12a12.29,12.29,0,0,1,9.06-21.21A12.46,12.46,0,0,1,76.29,59a12.17,12.17,0,0,1-3.81,9.1A18.18,18.18,0,0,0,67,80.73l-6,0A18,18,0,0,0,55.55,68.12Z"/><path fill="#48b87d" d="M63.18,51.65A2,2,0,0,0,60.6,50.5,9.53,9.53,0,0,0,54.79,57a2,2,0,1,0,3.87,1A5.53,5.53,0,0,1,62,54.24,2,2,0,0,0,63.18,51.65Z"/><path fill="#48b87d" d="M107.26,25.5a2,2,0,0,0,0-4h-6.56a2,2,0,0,0,0,4Z"/><path fill="#48b87d" d="M124,21.5H112.91a5.89,5.89,0,0,1,0,4H124v77H39.75A9.39,9.39,0,0,0,35,104L16.5,117.13V106.5a4,4,0,0,0-4-4H4v-77H95.11a5.89,5.89,0,0,1,0-4H4a4,4,0,0,0-4,4v77a4,4,0,0,0,4,4h8.5V119a3,3,0,0,0,1.56,2.85,2.72,2.72,0,0,0,1.26.31,3.42,3.42,0,0,0,2-.68l20-14.19a5.46,5.46,0,0,1,2.47-.79H124a4,4,0,0,0,4-4v-77A4,4,0,0,0,124,21.5Z"/><path fill="#48b87d" d="M78.91,39.55A2,2,0,1,0,81,36.16,31.89,31.89,0,0,0,74,32.83a2,2,0,1,0-1.24,3.8A27.89,27.89,0,0,1,78.91,39.55Z"/></svg>