<svg xmlns="http://www.w3.org/2000/svg" data-name="Layer 1" viewBox="0 0 100 125" x="0px" y="0px"><path d="M74.939,88.8a1.369,1.369,0,0,1-.135,1.93,37.815,37.815,0,0,1-46.275,2.584l.21.748a1.367,1.367,0,1,1-2.633.739l-1.329-4.734a1.367,1.367,0,0,1,1.316-1.737H26.1l4.917.028a1.368,1.368,0,0,1-.008,2.735H31l-.884,0a35.079,35.079,0,0,0,42.891-2.423A1.369,1.369,0,0,1,74.939,88.8ZM16.476,47.741a1.366,1.366,0,0,0,1.822-.647A35.007,35.007,0,0,1,29.871,33.418l-.3.779a1.368,1.368,0,1,0,2.55.989L33.9,30.6a1.367,1.367,0,0,0-1.149-1.856l-4.894-.454a1.367,1.367,0,1,0-.253,2.723l.821.076A37.726,37.726,0,0,0,15.829,45.919,1.366,1.366,0,0,0,16.476,47.741ZM65.746,30.8A35.453,35.453,0,0,1,79.887,43.762l-.967-.4a1.367,1.367,0,1,0-1.047,2.526l4.54,1.883A1.369,1.369,0,0,0,84.3,46.664l.565-4.883a1.368,1.368,0,0,0-2.717-.315l-.073.63a38.216,38.216,0,0,0-15.1-13.742A1.368,1.368,0,1,0,65.746,30.8Zm-29.488,4V28.424a10.11,10.11,0,0,1,10.1-10.1h6.267a10.11,10.11,0,0,1,10.1,10.1V34.8a1.367,1.367,0,0,1-1.368,1.368H37.626A1.368,1.368,0,0,1,36.258,34.8Zm2.735-1.367H59.988V28.424a7.372,7.372,0,0,0-7.364-7.363H46.357a7.372,7.372,0,0,0-7.364,7.363ZM44.2,14.7a11.13,11.13,0,0,1-2.235-7.176,7.524,7.524,0,0,1,15.048,0c0,6.418-3.785,9.776-7.524,9.776A6.892,6.892,0,0,1,44.2,14.7Zm.5-7.176c0,4.838,2.482,7.041,4.789,7.041s4.789-2.2,4.789-7.041a4.789,4.789,0,0,0-9.578,0Zm53.847,70.79v6.378a1.367,1.367,0,0,1-1.367,1.367H73.458a1.367,1.367,0,0,1-1.367-1.367V78.314a10.11,10.11,0,0,1,10.1-10.1h6.262A10.11,10.11,0,0,1,98.549,78.314Zm-2.735,0a7.372,7.372,0,0,0-7.363-7.364H82.189a7.372,7.372,0,0,0-7.363,7.364v5.01H95.814ZM85.323,49.889a7.533,7.533,0,0,1,7.524,7.524c0,6.418-3.785,9.776-7.524,9.776a6.885,6.885,0,0,1-5.288-2.6A11.125,11.125,0,0,1,77.8,57.413,7.533,7.533,0,0,1,85.323,49.889Zm-4.789,7.524c0,4.838,2.482,7.041,4.789,7.041s4.789-2.2,4.789-7.041a4.789,4.789,0,0,0-9.578,0ZM26.542,86.059H2.818a1.367,1.367,0,0,1-1.367-1.367V78.314a10.11,10.11,0,0,1,10.1-10.1h6.262a10.11,10.11,0,0,1,10.1,10.1v6.378A1.367,1.367,0,0,1,26.542,86.059Zm-1.368-7.745a7.372,7.372,0,0,0-7.363-7.364H11.549a7.372,7.372,0,0,0-7.363,7.364v5.01H25.174ZM9.389,64.589a11.125,11.125,0,0,1-2.236-7.176,7.524,7.524,0,0,1,15.048,0c0,6.418-3.785,9.776-7.524,9.776A6.887,6.887,0,0,1,9.389,64.589Zm.5-7.176c0,4.838,2.483,7.041,4.789,7.041s4.789-2.2,4.789-7.041a4.789,4.789,0,0,0-9.578,0Zm60.176-.733V63.4a3.395,3.395,0,1,1-2.735,0v-5.78l-3.576,1.232v8.82a1.367,1.367,0,0,1-.978,1.31l-12.628,3.76a1.39,1.39,0,0,1-.781,0l-12.628-3.76a1.367,1.367,0,0,1-.978-1.31V58.851L28.344,56.3a1.368,1.368,0,0,1,0-2.586l20.967-7.22a1.374,1.374,0,0,1,.891,0l20.972,7.22a1.368,1.368,0,0,1,0,2.586Zm-.7,9.83a.662.662,0,1,0-1.323,0,.662.662,0,0,0,1.323,0Zm-8.343-6.716L50.2,63.518a1.375,1.375,0,0,1-.89,0L38.495,59.793v6.86l11.261,3.352,11.262-3.352Zm5.509-4.789L49.756,49.232,32.989,55.005l16.767,5.773Z"/></svg>