<?xml version="1.0" encoding="UTF-8" standalone="no"?><!-- Generator: Gravit.io --><svg xmlns="http://www.w3.org/2000/svg" xmlns:xlink="http://www.w3.org/1999/xlink" style="isolation:isolate" viewBox="0 0 1366 768" width="1366pt" height="768pt"><line x1="1188.445" y1="326.476" x2="669.073" y2="326.268" vector-effect="non-scaling-stroke" stroke-width="18.461" stroke="rgb(46,198,92)" stroke-linejoin="bevel" stroke-linecap="butt" stroke-miterlimit="3"/><path d=" M 1083.841 187.192 L 987.841 325.037 L 1087.533 460.421" fill="none" vector-effect="non-scaling-stroke" stroke-width="18.461" stroke="rgb(46,198,92)" stroke-linejoin="bevel" stroke-linecap="butt" stroke-miterlimit="3"/><path d=" M 922.611 103.5 L 771.227 326.268 L 922.611 535.497" fill="none" vector-effect="non-scaling-stroke" stroke-width="18.461" stroke="rgb(46,198,92)" stroke-linejoin="bevel" stroke-linecap="butt" stroke-miterlimit="3"/><line x1="228.461" y1="187.192" x2="228.461" y2="448.113" vector-effect="non-scaling-stroke" stroke-width="18.461" stroke="rgb(46,198,92)" stroke-linejoin="bevel" stroke-linecap="butt" stroke-miterlimit="3"/><line x1="403.229" y1="103.5" x2="403.229" y2="540.421" vector-effect="non-scaling-stroke" stroke-width="18.461" stroke="rgb(46,198,92)" stroke-linejoin="bevel" stroke-linecap="butt" stroke-miterlimit="3"/><line x1="561.998" y1="187.192" x2="561.998" y2="469.036" vector-effect="non-scaling-stroke" stroke-width="18.461" stroke="rgb(46,198,92)" stroke-linejoin="bevel" stroke-linecap="butt" stroke-miterlimit="3"/><line x1="228.461" y1="310.958" x2="228.461" y2="343.728" vector-effect="non-scaling-stroke" stroke-width="36.923" stroke="rgb(46,198,92)" stroke-linejoin="bevel" stroke-linecap="butt" stroke-miterlimit="3"/><line x1="403.229" y1="388.496" x2="403.229" y2="421.266" vector-effect="non-scaling-stroke" stroke-width="36.923" stroke="rgb(46,198,92)" stroke-linejoin="bevel" stroke-linecap="butt" stroke-miterlimit="3"/><line x1="563.229" y1="266.651" x2="563.229" y2="299.421" vector-effect="non-scaling-stroke" stroke-width="36.923" stroke="rgb(46,198,92)" stroke-linejoin="bevel" stroke-linecap="butt" stroke-miterlimit="3"/><path d=" M 645.151 355.806 L 558.998 469.036 L 403.922 540.42 L 225.461 448.113 L 106.347 288.926" fill="none" vector-effect="non-scaling-stroke" stroke-width="18.461" stroke="rgb(46,198,92)" stroke-linejoin="bevel" stroke-linecap="butt" stroke-miterlimit="3"/><path d=" M 680.71 287.682 L 747.942 183.368 L 922.772 103.503 L 1083.938 187.319 L 1218.445 360.476" fill="none" vector-effect="non-scaling-stroke" stroke-width="18.461" stroke="rgb(46,198,92)" stroke-linejoin="bevel" stroke-linecap="butt" stroke-miterlimit="3"/><path d=" M 106 362 L 228.461 183.5 L 403.229 103.5 L 564.459 187.192 L 667 327" fill="none" vector-effect="non-scaling-stroke" stroke-width="18.461" stroke="rgb(46,198,92)" stroke-linejoin="bevel" stroke-linecap="butt" stroke-miterlimit="3"/><path d=" M 1217.009 288.936 L 1087.533 466.575 L 926.303 540.42 L 749.073 460.421 L 660.935 317.985" fill="none" vector-effect="non-scaling-stroke" stroke-width="18.461" stroke="rgb(46,198,92)" stroke-linejoin="bevel" stroke-linecap="butt" stroke-miterlimit="3"/><path d=" M 731.609 678.763 L 734.727 670.128 L 734.727 670.128 Q 748.58 676.964 764.411 676.964 L 764.411 676.964 L 764.411 676.964 Q 783.9 676.964 783.9 659.214 L 783.9 659.214 L 783.9 659.214 Q 783.9 653.457 780.812 649.889 L 780.812 649.889 L 780.812 649.889 Q 777.724 646.321 769.568 644.282 L 769.568 644.282 L 751.938 639.844 L 751.938 639.844 Q 731.729 634.747 731.729 618.256 L 731.729 618.256 L 731.729 618.256 Q 731.729 605.603 740.424 599.456 L 740.424 599.456 L 740.424 599.456 Q 749.12 593.31 764.471 593.31 L 764.471 593.31 L 764.471 593.31 Q 772.507 593.31 779.523 595.049 L 779.523 595.049 L 779.523 595.049 Q 786.539 596.788 791.276 599.726 L 791.276 599.726 L 788.278 608.182 L 788.278 608.182 Q 784.26 605.963 777.634 604.224 L 777.634 604.224 L 777.634 604.224 Q 771.008 602.485 764.231 602.485 L 764.231 602.485 L 764.231 602.485 Q 742.523 602.485 742.523 617.537 L 742.523 617.537 L 742.523 617.537 Q 742.523 622.634 745.851 625.722 L 745.851 625.722 L 745.851 625.722 Q 749.18 628.81 755.836 630.429 L 755.836 630.429 L 772.687 634.507 L 772.687 634.507 Q 783.481 637.086 789.058 642.753 L 789.058 642.753 L 789.058 642.753 Q 794.635 648.42 794.635 658.854 L 794.635 658.854 L 794.635 658.854 Q 794.635 672.406 786.329 679.273 L 786.329 679.273 L 786.329 679.273 Q 778.024 686.139 763.752 686.139 L 763.752 686.139 L 763.752 686.139 Q 753.077 686.139 744.772 683.95 L 744.772 683.95 L 744.772 683.95 Q 736.467 681.761 731.609 678.763 L 731.609 678.763 L 731.609 678.763 Z  M 850.359 603.684 L 850.359 603.684 L 850.359 603.684 Q 840.345 603.684 833.119 608.541 L 833.119 608.541 L 833.119 608.541 Q 825.893 613.399 822.355 621.614 L 822.355 621.614 L 822.355 621.614 Q 818.817 629.83 818.817 640.504 L 818.817 640.504 L 818.817 640.504 Q 818.817 648.48 820.736 655.046 L 820.736 655.046 L 820.736 655.046 Q 822.655 661.612 826.492 666.56 L 826.492 666.56 L 826.492 666.56 Q 830.33 671.507 836.477 674.235 L 836.477 674.235 L 836.477 674.235 Q 842.624 676.964 850.599 676.964 L 850.599 676.964 L 850.599 676.964 Q 860.854 676.964 871.828 671.627 L 871.828 671.627 L 873.567 680.442 L 873.567 680.442 Q 864.632 686.079 849.4 686.079 L 849.4 686.079 L 849.4 686.079 Q 839.385 686.079 831.44 682.751 L 831.44 682.751 L 831.44 682.751 Q 823.494 679.423 818.307 673.336 L 818.307 673.336 L 818.307 673.336 Q 813.12 667.249 810.421 658.824 L 810.421 658.824 L 810.421 658.824 Q 807.723 650.398 807.723 640.084 L 807.723 640.084 L 807.723 640.084 Q 807.723 630.13 810.661 621.734 L 810.661 621.734 L 810.661 621.734 Q 813.6 613.339 818.967 607.312 L 818.967 607.312 L 818.967 607.312 Q 824.334 601.285 832.369 597.927 L 832.369 597.927 L 832.369 597.927 Q 840.405 594.569 850.239 594.569 L 850.239 594.569 L 850.239 594.569 Q 865.171 594.569 875.426 601.166 L 875.426 601.166 L 871.348 609.621 L 871.348 609.621 Q 861.513 603.684 850.359 603.684 Z  M 901.107 596.068 L 901.107 684.76 L 890.733 684.76 L 890.733 596.068 L 901.107 596.068 L 901.107 596.068 Z  M 975.362 684.76 L 924.09 684.76 L 924.09 596.068 L 974.942 596.068 L 974.522 605.243 L 934.464 605.243 L 934.464 634.267 L 972.543 634.267 L 972.543 643.322 L 934.464 643.322 L 934.464 675.585 L 975.841 675.585 L 975.362 684.76 L 975.362 684.76 Z  M 1064.128 596.068 L 1064.128 684.76 L 1052.375 684.76 L 1006.32 614.958 L 1003.322 610.82 L 1003.322 610.82 Q 1003.801 623.413 1003.801 633.308 L 1003.801 633.308 L 1003.801 684.76 L 994.087 684.76 L 994.087 596.068 L 1005.66 596.068 L 1051.835 665.87 L 1054.893 670.008 L 1054.893 670.008 Q 1054.474 650.878 1054.474 647.88 L 1054.474 647.88 L 1054.474 596.068 L 1064.128 596.068 L 1064.128 596.068 Z  M 1125.37 603.684 L 1125.37 603.684 L 1125.37 603.684 Q 1115.356 603.684 1108.13 608.541 L 1108.13 608.541 L 1108.13 608.541 Q 1100.904 613.399 1097.365 621.614 L 1097.365 621.614 L 1097.365 621.614 Q 1093.827 629.83 1093.827 640.504 L 1093.827 640.504 L 1093.827 640.504 Q 1093.827 648.48 1095.746 655.046 L 1095.746 655.046 L 1095.746 655.046 Q 1097.665 661.612 1101.503 666.56 L 1101.503 666.56 L 1101.503 666.56 Q 1105.341 671.507 1111.488 674.235 L 1111.488 674.235 L 1111.488 674.235 Q 1117.634 676.964 1125.61 676.964 L 1125.61 676.964 L 1125.61 676.964 Q 1135.864 676.964 1146.838 671.627 L 1146.838 671.627 L 1148.577 680.442 L 1148.577 680.442 Q 1139.642 686.079 1124.411 686.079 L 1124.411 686.079 L 1124.411 686.079 Q 1114.396 686.079 1106.45 682.751 L 1106.45 682.751 L 1106.45 682.751 Q 1098.505 679.423 1093.318 673.336 L 1093.318 673.336 L 1093.318 673.336 Q 1088.131 667.249 1085.432 658.824 L 1085.432 658.824 L 1085.432 658.824 Q 1082.733 650.398 1082.733 640.084 L 1082.733 640.084 L 1082.733 640.084 Q 1082.733 630.13 1085.672 621.734 L 1085.672 621.734 L 1085.672 621.734 Q 1088.61 613.339 1093.977 607.312 L 1093.977 607.312 L 1093.977 607.312 Q 1099.344 601.285 1107.38 597.927 L 1107.38 597.927 L 1107.38 597.927 Q 1115.416 594.569 1125.25 594.569 L 1125.25 594.569 L 1125.25 594.569 Q 1140.182 594.569 1150.436 601.166 L 1150.436 601.166 L 1146.359 609.621 L 1146.359 609.621 Q 1136.524 603.684 1125.37 603.684 Z  M 1216.535 684.76 L 1165.264 684.76 L 1165.264 596.068 L 1216.116 596.068 L 1215.696 605.243 L 1175.638 605.243 L 1175.638 634.267 L 1213.717 634.267 L 1213.717 643.322 L 1175.638 643.322 L 1175.638 675.585 L 1217.015 675.585 L 1216.535 684.76 L 1216.535 684.76 Z  M 523.026 684.76 L 473.913 684.76 L 473.913 596.068 L 484.348 596.068 L 484.348 675.525 L 523.386 675.525 L 523.026 684.76 L 523.026 684.76 Z  M 547.449 596.068 L 547.449 684.76 L 537.074 684.76 L 537.074 596.068 L 547.449 596.068 L 547.449 596.068 Z  M 580.806 645.181 L 580.806 684.76 L 570.431 684.76 L 570.431 596.068 L 619.664 596.068 L 619.245 605.243 L 580.806 605.243 L 580.806 636.366 L 617.446 636.366 L 617.446 645.181 L 580.806 645.181 L 580.806 645.181 Z  M 685.584 684.76 L 634.312 684.76 L 634.312 596.068 L 685.164 596.068 L 684.744 605.243 L 644.686 605.243 L 644.686 634.267 L 682.765 634.267 L 682.765 643.322 L 644.686 643.322 L 644.686 675.585 L 686.063 675.585 L 685.584 684.76 L 685.584 684.76 Z  M 116.852 640.444 L 116.852 640.444 L 116.852 640.444 Q 116.852 657.535 124.708 667.279 L 124.708 667.279 L 124.708 667.279 Q 132.564 677.024 147.915 677.024 L 147.915 677.024 L 147.915 677.024 Q 163.267 677.024 171.033 667.309 L 171.033 667.309 L 171.033 667.309 Q 178.798 657.595 178.798 640.444 L 178.798 640.444 L 178.798 640.444 Q 178.798 622.934 170.973 613.279 L 170.973 613.279 L 170.973 613.279 Q 163.147 603.624 147.975 603.624 L 147.975 603.624 L 147.975 603.624 Q 132.804 603.624 124.828 613.279 L 124.828 613.279 L 124.828 613.279 Q 116.852 622.934 116.852 640.444 Z  M 189.892 640.444 L 189.892 640.444 L 189.892 640.444 Q 189.892 650.578 187.104 658.974 L 187.104 658.974 L 187.104 658.974 Q 184.315 667.369 179.068 673.396 L 179.068 673.396 L 179.068 673.396 Q 173.821 679.423 165.846 682.751 L 165.846 682.751 L 165.846 682.751 Q 157.87 686.079 147.915 686.079 L 147.915 686.079 L 147.915 686.079 Q 134.483 686.079 124.918 680.352 L 124.918 680.352 L 124.918 680.352 Q 115.353 674.625 110.586 664.401 L 110.586 664.401 L 110.586 664.401 Q 105.818 654.176 105.818 640.384 L 105.818 640.384 L 105.818 640.384 Q 105.818 619.096 116.912 606.802 L 116.912 606.802 L 116.912 606.802 Q 128.006 594.509 147.975 594.509 L 147.975 594.509 L 147.975 594.509 Q 167.645 594.509 178.768 606.892 L 178.768 606.892 L 178.768 606.892 Q 189.892 619.276 189.892 640.444 Z  M 217.433 646.501 L 217.433 684.76 L 206.818 684.76 L 206.818 595.049 L 235.723 595.049 L 235.723 595.049 Q 242.319 595.049 247.656 596.428 L 247.656 596.428 L 247.656 596.428 Q 252.993 597.807 257.131 600.626 L 257.131 600.626 L 257.131 600.626 Q 261.269 603.444 263.547 608.182 L 263.547 608.182 L 263.547 608.182 Q 265.826 612.919 265.826 619.216 L 265.826 619.216 L 265.826 619.216 Q 265.826 624.433 264.867 628.541 L 264.867 628.541 L 264.867 628.541 Q 263.907 632.648 261.568 636.246 L 261.568 636.246 L 261.568 636.246 Q 259.23 639.844 255.452 642.213 L 255.452 642.213 L 255.452 642.213 Q 251.674 644.582 245.767 645.931 L 245.767 645.931 L 245.767 645.931 Q 239.86 647.28 232.065 647.28 L 232.065 647.28 L 232.065 647.28 Q 225.888 647.28 217.433 646.501 L 217.433 646.501 L 217.433 646.501 Z  M 233.084 638.105 L 233.084 638.105 L 233.084 638.105 Q 238.961 638.105 243.158 636.966 L 243.158 636.966 L 243.158 636.966 Q 247.356 635.826 249.605 634.147 L 249.605 634.147 L 249.605 634.147 Q 251.854 632.468 253.143 629.77 L 253.143 629.77 L 253.143 629.77 Q 254.432 627.071 254.732 624.823 L 254.732 624.823 L 254.732 624.823 Q 255.032 622.574 255.032 619.396 L 255.032 619.396 L 255.032 619.396 Q 255.032 611.78 249.905 608.182 L 249.905 608.182 L 249.905 608.182 Q 244.778 604.584 235.962 604.584 L 235.962 604.584 L 217.433 604.584 L 217.433 637.985 L 217.433 637.985 Q 229.006 638.105 233.084 638.105 Z  M 330.726 684.76 L 279.454 684.76 L 279.454 596.068 L 330.306 596.068 L 329.886 605.243 L 289.828 605.243 L 289.828 634.267 L 327.907 634.267 L 327.907 643.322 L 289.828 643.322 L 289.828 675.585 L 331.206 675.585 L 330.726 684.76 L 330.726 684.76 Z  M 419.492 596.068 L 419.492 684.76 L 407.739 684.76 L 361.684 614.958 L 358.686 610.82 L 358.686 610.82 Q 359.166 623.413 359.166 633.308 L 359.166 633.308 L 359.166 684.76 L 349.451 684.76 L 349.451 596.068 L 361.025 596.068 L 407.199 665.87 L 410.258 670.008 L 410.258 670.008 Q 409.838 650.878 409.838 647.88 L 409.838 647.88 L 409.838 596.068 L 419.492 596.068 L 419.492 596.068 Z " fill="rgb(0,0,0)"/></svg>