<?xml version="1.0" encoding="utf-8"?>
<!-- Generator: Adobe Illustrator 22.1.0, SVG Export Plug-In . SVG Version: 6.00 Build 0)  -->
<svg version="1.1" xmlns="http://www.w3.org/2000/svg" xmlns:xlink="http://www.w3.org/1999/xlink" x="0px" y="0px"
	 viewBox="0 0 1366 768" style="enable-background:new 0 0 1366 768;" xml:space="preserve">
<style type="text/css">
	.st0{fill:none;stroke:#29AA4B;stroke-width:11.3109;stroke-miterlimit:10;}
	.st1{fill:none;stroke:#29AA4B;stroke-width:22.6218;stroke-miterlimit:10;}
	.st2{fill:none;stroke:#2EC65C;stroke-width:11.3109;stroke-miterlimit:10;}
	.st3{fill:none;stroke:#2EC65C;stroke-width:18.4614;stroke-miterlimit:10;}
	.st4{fill:#2EC65C;}
	.st5{fill:#29AA4B;}
</style>
<g id="Camada_5">
	<path class="st0" d="M478.6,42.6"/>
	<line class="st0" x1="473.2" y1="747.6" x2="473.5" y2="398.4"/>
	<polyline class="st0" points="551,677.3 474.1,612.7 398.4,679.7 	"/>
	<path class="st0" d="M597.8,571.5"/>
	<path class="st0" d="M597.8,569"/>
	<polyline class="st0" points="597.8,569 473.5,467.1 356.6,568.8 	"/>
	<path class="st0" d="M551.3,102.2"/>
	<line class="st0" x1="551.3" y1="102.2" x2="405.7" y2="102.1"/>
	<line class="st0" x1="598" y1="219.8" x2="354.1" y2="219.5"/>
	<line class="st0" x1="551.2" y1="326.5" x2="393.9" y2="326.3"/>
</g>
<g id="Camada_6">
	<line class="st1" x1="482.3" y1="102.2" x2="464" y2="102.1"/>
	<line class="st1" x1="438.9" y1="219.6" x2="420.6" y2="219.6"/>
	<line class="st1" x1="506.8" y1="327.3" x2="488.5" y2="327.2"/>
</g>
<g id="Camada_1">
	<polyline class="st2" points="457,384.3 393.9,326.3 354.1,222 405.7,102.1 478.4,42.9 	"/>
	<path class="st0" d="M478.6,42.6"/>
</g>
<g id="Camada_4">
	<polyline class="st2" points="495.1,406.2 553.3,451.5 597.8,569.1 550.9,677.4 473.2,747.6 	"/>
</g>
<g id="Camada_3">
	<polyline class="st2" points="473.3,42 553.4,102.2 598,219.8 551.2,328.1 473.1,397 	"/>
	<path class="st3" d="M1067.8,581.5"/>
</g>
<g id="Camada_2">
	<polyline class="st2" points="477.9,750 395,679.7 353.8,571.2 398.6,452.1 478.1,392.9 	"/>
	<g>
		<g>
			<path class="st4" d="M723.7,179.1c0,46.2-15.8,64-35.7,64c-20.5,0-34.2-21.8-34.2-63.2c0-40.9,14.7-63,36.2-63
				C711.1,116.8,723.7,139.7,723.7,179.1z M668.4,180c0,25.4,4.9,50.8,20.6,50.8c15.9,0,20-26.9,20-51.2c0-23-4.2-50.4-20.2-50.4
				C673.4,129.2,668.4,154.9,668.4,180z"/>
			<path class="st4" d="M740.6,120.1c5.7-1.5,12.3-2.4,20.4-2.4c11.3,0,20.9,2.7,27.3,9.1c5.9,5.9,9.1,14.8,9.1,25.6
				c0,11.3-2.8,18.9-7.5,25.1c-6.8,9.2-18.2,13.8-29.1,13.8c-2.4,0-4.3,0-6.3-0.3v50.6h-14V120.1z M754.6,179.3
				c1.6,0.3,3.2,0.4,5.6,0.4c13.8,0,23.1-9.1,23.1-26.5c0-12.7-5.2-24-20.9-24c-3.2,0-5.9,0.4-7.8,0.9V179.3z"/>
			<path class="st4" d="M858.5,183h-30.9v46.4h35.2v12.2h-49.2V118.3h46.9v12.2h-32.9v40.6h30.9V183z"/>
			<path class="st4" d="M878.4,241.6V118.3h13.3l22.6,57.8c5.2,13.2,11.5,29.6,15.8,42.9h0.4c-1.1-19.4-1.7-35.3-1.7-56.6v-44.1
				h12.7v123.3h-13.3l-23.4-59.3c-5-12.5-10.3-26.4-14.7-41.9h-0.4c1.1,16.5,1.4,32.1,1.4,58.5v42.7H878.4z"/>
			<path class="st5" d="M659.1,337.9h14v111.4h34.7v11.9h-48.7V337.9z"/>
			<path class="st5" d="M736,337.9v123.3h-14V337.9H736z"/>
			<path class="st5" d="M758.4,337.9h47v12.2h-32.9v43.2h30.8v11.9h-30.8v56h-14V337.9z"/>
			<path class="st5" d="M866.5,402.6h-30.9V449h35.2v12.2h-49.2V337.9h46.9v12.2h-32.9v40.6h30.9V402.6z"/>
			<path class="st5" d="M656.2,664.6c4.2,2.7,11.6,5,17.7,5c12.9,0,20.6-8.5,20.6-21c0-11.4-6.7-18.3-16.3-25.6
				c-9.7-6.8-23.2-18.3-23.2-34.2c0-18.6,13-32.4,32.6-32.4c7.7,0,14.3,2.5,17.2,4.5l-3.4,12.1c-3.1-2.2-8.3-4.2-14.7-4.2
				c-12.1,0-17.8,9.2-17.8,17.7c0,12.2,6.4,17.1,18.1,25.4c14.8,10.5,21.4,21.9,21.4,35.5c0,21.3-15,34.6-34.5,34.6
				c-8.4,0-17.3-2.8-20.8-5.4L656.2,664.6z"/>
			<path class="st5" d="M778.8,678.7c-3.8,2-10,3.3-17.7,3.3c-24,0-41.3-19.4-41.3-61.3c0-48.6,24.1-64.3,43.6-64.3
				c7.4,0,12.8,1.4,15.3,3l-3.1,12c-3-1.4-6-2.6-12.4-2.6c-13.1,0-28.7,12.9-28.7,50.4c0,37.8,13.9,50.1,29.1,50.1
				c5.3,0,10-1.2,12.9-2.6L778.8,678.7z"/>
			<path class="st5" d="M807.4,557.5v123.3h-14V557.5H807.4z"/>
			<path class="st5" d="M874.7,622.2h-30.9v46.4H879v12.2h-49.2V557.5h47v12.2h-32.9v40.6h30.9V622.2z"/>
			<path class="st5" d="M894.6,680.8V557.5h13.3l22.6,57.8c5.2,13.2,11.5,29.6,15.8,42.9h0.4c-1.1-19.4-1.7-35.3-1.7-56.6v-44.1
				h12.7v123.3h-13.3l-23.4-59.3c-5-12.5-10.3-26.4-14.7-41.9h-0.4c1.1,16.5,1.4,32.1,1.4,58.5v42.7H894.6z"/>
			<path class="st5" d="M1033.5,678.7c-3.8,2-10,3.3-17.7,3.3c-24,0-41.3-19.4-41.3-61.3c0-48.6,24.1-64.3,43.6-64.3
				c7.4,0,12.8,1.4,15.3,3l-3.1,12c-3-1.4-6-2.6-12.4-2.6c-13.1,0-28.7,12.9-28.7,50.4c0,37.8,13.9,50.1,29.1,50.1
				c5.3,0,10-1.2,12.9-2.6L1033.5,678.7z"/>
			<path class="st5" d="M1092.9,622.2h-30.9v46.4h35.2v12.2H1048V557.5h46.9v12.2h-32.9v40.6h30.9V622.2z"/>
		</g>
	</g>
</g>
</svg>
