<?xml version="1.0" encoding="utf-8"?>
<!-- Generator: Adobe Illustrator 22.1.0, SVG Export Plug-In . SVG Version: 6.00 Build 0)  -->
<svg version="1.1" xmlns="http://www.w3.org/2000/svg" xmlns:xlink="http://www.w3.org/1999/xlink" x="0px" y="0px"
	 viewBox="0 0 1366 768" style="enable-background:new 0 0 1366 768;" xml:space="preserve">
<style type="text/css">
	.st0{fill:none;stroke:#29AA4B;stroke-width:12.4047;stroke-miterlimit:10;}
	.st1{fill:none;stroke:#29AA4B;stroke-width:24.8094;stroke-miterlimit:10;}
	.st2{fill:none;stroke:#2EC65C;stroke-width:12.4047;stroke-miterlimit:10;}
	.st3{fill:none;stroke:#2EC65C;stroke-width:18.4614;stroke-miterlimit:10;}
	.st4{fill:#2EC65C;}
	.st5{fill:#29AA4B;}
</style>
<g id="Camada_5">
	<path class="st0" d="M503.9,43"/>
	<line class="st0" x1="497.5" y1="747.6" x2="497.9" y2="398.6"/>
	<polyline class="st0" points="591.1,677.4 498.5,612.8 407.5,679.7 	"/>
	<path class="st0" d="M647.4,571.6"/>
	<path class="st0" d="M647.4,569.1"/>
	<polyline class="st0" points="647.4,569.1 497.8,467.3 357.2,568.9 	"/>
	<path class="st0" d="M591.5,102.6"/>
	<line class="st0" x1="591.5" y1="102.6" x2="416.2" y2="102.5"/>
	<line class="st0" x1="647.7" y1="220.1" x2="354.1" y2="219.9"/>
	<line class="st0" x1="591.4" y1="326.7" x2="402" y2="326.6"/>
</g>
<g id="Camada_6">
	<line class="st1" x1="508.4" y1="102.6" x2="486.4" y2="102.6"/>
	<line class="st1" x1="456.2" y1="220" x2="434.2" y2="219.9"/>
	<line class="st1" x1="538" y1="327.5" x2="516" y2="327.5"/>
</g>
<g id="Camada_1">
	<polyline class="st2" points="478,384.5 402,326.6 354.1,222.4 416.2,102.5 503.7,43.4 	"/>
	<path class="st0" d="M503.9,43"/>
</g>
<g id="Camada_4">
	<polyline class="st2" points="523.8,406.5 593.8,451.7 647.4,569.2 591,677.5 497.5,747.6 	"/>
</g>
<g id="Camada_3">
	<polyline class="st2" points="497.7,42.5 594,102.6 647.7,220.1 591.4,328.4 497.4,397.2 	"/>
	<path class="st3" d="M1067.8,581.5"/>
</g>
<g id="Camada_2">
	<polyline class="st2" points="503.2,750 403.4,679.7 353.8,571.4 407.7,452.3 503.4,393.2 	"/>
	<g>
		<g>
			<path class="st4" d="M805.8,153c0,50.4-17.3,69.9-39,69.9c-22.4,0-37.4-23.8-37.4-69.1c0-44.7,16.1-68.9,39.6-68.9
				C792,84.9,805.8,109.9,805.8,153z M745.3,153.9c0,27.7,5.4,55.5,22.5,55.5c17.3,0,21.9-29.4,21.9-55.9c0-25.2-4.6-55.1-22.1-55.1
				C750.7,98.4,745.3,126.5,745.3,153.9z"/>
			<path class="st4" d="M824.2,88.5c6.2-1.6,13.4-2.6,22.3-2.6c12.4,0,22.9,3,29.8,9.9c6.5,6.4,10,16.2,10,28
				c0,12.4-3,20.6-8.2,27.5c-7.4,10.1-19.9,15.1-31.8,15.1c-2.7,0-4.7,0-6.8-0.3v55.3h-15.3V88.5z M839.5,153.2
				c1.8,0.3,3.5,0.5,6.1,0.5c15.1,0,25.2-9.9,25.2-28.9c0-13.9-5.7-26.2-22.8-26.2c-3.5,0-6.4,0.4-8.5,1V153.2z"/>
			<path class="st4" d="M953.1,157.3h-33.7v50.7h38.5v13.4H904V86.5h51.3v13.4h-36v44.4h33.7V157.3z"/>
			<path class="st4" d="M974.8,221.3V86.5h14.5l24.7,63.2c5.6,14.5,12.6,32.3,17.3,46.9h0.4c-1.2-21.2-1.9-38.6-1.9-61.9V86.5h13.9
				v134.8h-14.5l-25.6-64.8c-5.5-13.6-11.2-28.9-16-45.8h-0.4c1.2,18,1.5,35.1,1.5,63.9v46.7H974.8z"/>
			<path class="st5" d="M735.1,326.5h15.3v121.7h37.9v13.1h-53.2V326.5z"/>
			<path class="st5" d="M819.2,326.5v134.8h-15.3V326.5H819.2z"/>
			<path class="st5" d="M843.7,326.5H895v13.4h-36v47.2h33.6v13H859v61.2h-15.3V326.5z"/>
			<path class="st5" d="M961.7,397.3H928v50.7h38.5v13.4h-53.8V326.5H964v13.4h-36v44.4h33.7V397.3z"/>
			<path class="st5" d="M732,683.5c4.5,2.9,12.7,5.5,19.3,5.5c14.1,0,22.5-9.3,22.5-22.9c0-12.5-7.3-20-17.8-28
				c-10.6-7.4-25.4-20-25.4-37.4c0-20.4,14.3-35.4,35.7-35.4c8.4,0,15.6,2.7,18.8,4.9l-3.7,13.2c-3.4-2.4-9.1-4.6-16.1-4.6
				c-13.2,0-19.5,10-19.5,19.3c0,13.4,7,18.7,19.8,27.7c16.2,11.5,23.4,23.9,23.4,38.8c0,23.3-16.3,37.9-37.8,37.9
				c-9.2,0-18.9-3-22.7-5.9L732,683.5z"/>
			<path class="st5" d="M866,698.9c-4.2,2.2-10.9,3.6-19.3,3.6c-26.3,0-45.1-21.2-45.1-67c0-53.2,26.3-70.2,47.7-70.2
				c8.1,0,14,1.6,16.8,3.3l-3.4,13.1c-3.3-1.5-6.5-2.9-13.6-2.9c-14.4,0-31.3,14.1-31.3,55.1c0,41.3,15.2,54.8,31.8,54.8
				c5.8,0,10.9-1.4,14.1-2.9L866,698.9z"/>
			<path class="st5" d="M897.2,566.5v134.8h-15.3V566.5H897.2z"/>
			<path class="st5" d="M970.8,637.3H937v50.7h38.5v13.4h-53.8V566.5H973v13.4h-36v44.4h33.7V637.3z"/>
			<path class="st5" d="M992.5,701.3V566.5h14.5l24.7,63.2c5.6,14.5,12.6,32.3,17.3,46.9h0.4c-1.2-21.2-1.9-38.6-1.9-61.9v-48.2
				h13.9v134.8h-14.5l-25.6-64.8c-5.5-13.6-11.2-28.9-16-45.8h-0.4c1.2,18,1.5,35.1,1.5,63.9v46.7H992.5z"/>
			<path class="st5" d="M1144.3,698.9c-4.2,2.2-10.9,3.6-19.3,3.6c-26.3,0-45.1-21.2-45.1-67c0-53.2,26.3-70.2,47.7-70.2
				c8.1,0,14,1.6,16.8,3.3l-3.4,13.1c-3.3-1.5-6.5-2.9-13.6-2.9c-14.4,0-31.3,14.1-31.3,55.1c0,41.3,15.2,54.8,31.8,54.8
				c5.8,0,10.9-1.4,14.1-2.9L1144.3,698.9z"/>
			<path class="st5" d="M1209.3,637.3h-33.7v50.7h38.5v13.4h-53.8V566.5h51.3v13.4h-36v44.4h33.7V637.3z"/>
		</g>
	</g>
</g>
</svg>
